<svg width="136" height="32" viewBox="0 0 136 32" fill="none" xmlns="http://www.w3.org/2000/svg">
<path fill-rule="evenodd" clip-rule="evenodd" d="M51.7913 28C53.7606 28 55.4755 27.6611 56.9359 26.9833C58.3962 26.3056 59.5303 25.3778 60.3379 24.2C61.1456 23.0222 61.5715 21.7 61.6158 20.2333C61.6379 20.0333 61.577 19.8667 61.4332 19.7333C61.2894 19.6 61.1179 19.5333 60.9187 19.5333V19.5333H57.6992C57.4337 19.5333 57.2346 19.5944 57.1018 19.7167C56.969 19.8389 56.8584 20.0556 56.7699 20.3667C56.438 21.7444 55.8572 22.7167 55.0274 23.2833C54.1976 23.85 53.1189 24.1333 51.7913 24.1333C48.6271 24.1333 46.9786 22.3556 46.8459 18.8C46.8237 18.1556 46.8127 17.2111 46.8127 15.9667C46.8127 14.7222 46.8237 13.8 46.8459 13.2C46.9786 9.64444 48.6271 7.86667 51.7913 7.86667C53.141 7.86667 54.2253 8.15 55.044 8.71667C55.8627 9.28333 56.438 10.2556 56.7699 11.6333C56.8584 11.9444 56.969 12.1611 57.1018 12.2833C57.2346 12.4056 57.4337 12.4667 57.6992 12.4667V12.4667H60.9187C61.0958 12.4667 61.2562 12.4056 61.4 12.2833C61.5438 12.1611 61.6158 12.0111 61.6158 11.8333V11.8333V11.7667C61.5715 10.3 61.1456 8.97778 60.3379 7.8C59.5303 6.62222 58.3962 5.69444 56.9359 5.01667C55.4755 4.33889 53.7606 4 51.7913 4C48.7599 4 46.4033 4.79444 44.7216 6.38333C43.04 7.97222 42.1438 10.1889 42.0332 13.0333C42.0111 13.6556 42 14.6556 42 16.0333L42.0002 16.3644C42.0019 17.5492 42.0129 18.4167 42.0332 18.9667C42.1438 21.8556 43.0344 24.0833 44.705 25.65C46.3757 27.2167 48.7377 28 51.7913 28ZM69.4414 28C70.769 28 71.8754 27.7722 72.7605 27.3167C73.6456 26.8611 74.3315 26.2778 74.8183 25.5667V25.5667V26.8667C74.8183 27.0889 74.8958 27.2778 75.0507 27.4333C75.2055 27.5889 75.3936 27.6667 75.6149 27.6667V27.6667H78.3697C78.6131 27.6667 78.8067 27.5889 78.9506 27.4333C79.0944 27.2778 79.1663 27.0889 79.1663 26.8667V26.8667V16.4C79.1663 14.4889 78.5689 12.9444 77.374 11.7667C76.1791 10.5889 74.2762 10 71.6652 10C70.072 10 68.7333 10.2611 67.6491 10.7833C66.5649 11.3056 65.7628 11.9167 65.2428 12.6167C64.7228 13.3167 64.4517 13.9444 64.4296 14.5C64.4296 14.7222 64.5015 14.9 64.6453 15.0333C64.7892 15.1667 64.9607 15.2333 65.1598 15.2333V15.2333H67.7487C67.9921 15.2333 68.158 15.1 68.2465 14.8333C68.335 14.7444 68.5176 14.5611 68.7942 14.2833C69.0708 14.0056 69.4303 13.7333 69.8729 13.4667C70.3154 13.2 70.9018 13.0667 71.632 13.0667C72.6941 13.0667 73.4686 13.3111 73.9554 13.8C74.4422 14.2889 74.6856 15.0111 74.6856 15.9667V15.9667V16.6667L70.1384 17.3333C68.0142 17.6667 66.3436 18.3 65.1266 19.2333C63.9096 20.1667 63.3011 21.3889 63.3011 22.9C63.3011 23.8333 63.5722 24.6889 64.1143 25.4667C64.6564 26.2444 65.3977 26.8611 66.3381 27.3167C67.2785 27.7722 68.3129 28 69.4414 28ZM70.5699 24.8C69.7512 24.8 69.0486 24.6056 68.4623 24.2167C67.8759 23.8278 67.5827 23.2778 67.5827 22.5667C67.5827 21.2556 68.855 20.4 71.3997 20V20L74.7187 19.4667V20.1333C74.7187 21.6444 74.3315 22.8 73.5571 23.6C72.7826 24.4 71.7869 24.8 70.5699 24.8ZM98.31 27.6667C98.5534 27.6667 98.7526 27.5889 98.9074 27.4333C99.0623 27.2778 99.1398 27.0889 99.1398 26.8667V26.8667V24.4667C99.1398 24.2444 99.0623 24.0556 98.9074 23.9C98.7526 23.7444 98.5534 23.6667 98.31 23.6667V23.6667H87.7885V5.13333C87.7885 4.88889 87.7166 4.69444 87.5728 4.55C87.429 4.40556 87.2354 4.33333 86.992 4.33333V4.33333H83.872C83.6508 4.33333 83.4627 4.40556 83.3078 4.55C83.1529 4.69444 83.0754 4.88889 83.0754 5.13333V5.13333V26.8667C83.0754 27.0889 83.1529 27.2778 83.3078 27.4333C83.4627 27.5889 83.6508 27.6667 83.872 27.6667V27.6667H98.31ZM106.235 28C107.563 28 108.669 27.7722 109.554 27.3167C110.439 26.8611 111.125 26.2778 111.612 25.5667V25.5667V26.8667C111.612 27.0889 111.69 27.2778 111.844 27.4333C111.999 27.5889 112.187 27.6667 112.409 27.6667V27.6667H115.164C115.407 27.6667 115.601 27.5889 115.744 27.4333C115.888 27.2778 115.96 27.0889 115.96 26.8667V26.8667V16.4C115.96 14.4889 115.363 12.9444 114.168 11.7667C112.973 10.5889 111.07 10 108.459 10C106.866 10 105.527 10.2611 104.443 10.7833C103.359 11.3056 102.557 11.9167 102.037 12.6167C101.517 13.3167 101.246 13.9444 101.223 14.5C101.223 14.7222 101.295 14.9 101.439 15.0333C101.583 15.1667 101.754 15.2333 101.954 15.2333V15.2333H104.543C104.786 15.2333 104.952 15.1 105.04 14.8333V14.8333L105.139 14.734C105.241 14.632 105.39 14.4817 105.588 14.2833C105.865 14.0056 106.224 13.7333 106.667 13.4667C107.109 13.2 107.696 13.0667 108.426 13.0667C109.488 13.0667 110.262 13.3111 110.749 13.8C111.236 14.2889 111.479 15.0111 111.479 15.9667V15.9667V16.6667L106.932 17.3333C104.808 17.6667 103.137 18.3 101.92 19.2333C100.703 20.1667 100.095 21.3889 100.095 22.9C100.095 23.8333 100.366 24.6889 100.908 25.4667C101.45 26.2444 102.191 26.8611 103.132 27.3167C104.072 27.7722 105.107 28 106.235 28ZM107.364 24.8C106.545 24.8 105.842 24.6056 105.256 24.2167C104.67 23.8278 104.377 23.2778 104.377 22.5667C104.377 21.2556 105.649 20.4 108.193 20V20L111.513 19.4667V20.1333C111.513 21.6444 111.125 22.8 110.351 23.6C109.576 24.4 108.581 24.8 107.364 24.8ZM123.222 27.6667C123.465 27.6667 123.659 27.5889 123.802 27.4333C123.946 27.2778 124.018 27.0889 124.018 26.8667V26.8667V17.7C124.018 16.4333 124.361 15.4333 125.047 14.7C125.733 13.9667 126.64 13.6 127.769 13.6C128.941 13.6 129.843 13.9611 130.474 14.6833C131.104 15.4056 131.42 16.4111 131.42 17.7V17.7V26.8667C131.42 27.0889 131.497 27.2778 131.652 27.4333C131.807 27.5889 131.995 27.6667 132.216 27.6667V27.6667H135.203C135.447 27.6667 135.64 27.5889 135.784 27.4333C135.928 27.2778 136 27.0889 136 26.8667V26.8667V17.5C136 15.1667 135.403 13.3333 134.208 12C133.013 10.6667 131.398 10 129.362 10C127.016 10 125.169 10.8333 123.819 12.5V12.5V11.1333C123.819 10.8889 123.747 10.6944 123.603 10.55C123.459 10.4056 123.266 10.3333 123.022 10.3333V10.3333H120.268C120.046 10.3333 119.858 10.4056 119.703 10.55C119.548 10.6944 119.471 10.8889 119.471 11.1333V11.1333V26.8667C119.471 27.0889 119.548 27.2778 119.703 27.4333C119.858 27.5889 120.046 27.6667 120.268 27.6667V27.6667H123.222Z" fill="black"/>
<path fill-rule="evenodd" clip-rule="evenodd" d="M12 0C5.37258 0 0 5.37258 0 12V20C0 26.6274 5.37258 32 12 32H20C26.6274 32 32 26.6274 32 20V12C32 5.37258 26.6274 0 20 0H12ZM18.8284 8.82843C17.2663 7.26633 14.7337 7.26633 13.1716 8.82842L8.82843 13.1716C7.26633 14.7337 7.26633 17.2663 8.82843 18.8284L13.1716 23.1716C14.7337 24.7337 17.2663 24.7337 18.8284 23.1716L23.1716 18.8284C24.7337 17.2663 24.7337 14.7337 23.1716 13.1716L18.8284 8.82843Z" fill="black"/>
</svg>
