<svg width="24" height="24" viewBox="0 0 24 24" fill="none" xmlns="http://www.w3.org/2000/svg">
<path fill-rule="evenodd" clip-rule="evenodd" d="M16.9563 14.505L16.2001 13.7488C15.8221 13.3708 15.2102 13.3708 14.8329 13.7488L14.2389 14.3428C14.1064 14.4753 13.9053 14.5198 13.7338 14.4449C12.8724 14.0677 12.022 13.4963 11.2635 12.7378C10.5082 11.9825 9.93836 11.1359 9.56108 10.2777C9.48234 10.1007 9.52834 9.89262 9.66553 9.75465L10.1979 9.22224C10.6306 8.78962 10.6306 8.17848 10.2525 7.80042L9.4956 7.0443C8.99203 6.54074 8.17667 6.54074 7.67311 7.0443L7.25295 7.46445C6.77511 7.94229 6.57634 8.63138 6.70496 9.31422C7.023 10.998 8.00206 12.8423 9.57978 14.4208C11.1575 15.9993 13.0018 16.9776 14.6863 17.2956C15.3692 17.4242 16.0583 17.2255 16.5361 16.7476L16.9563 16.3282C17.459 15.8247 17.459 15.0085 16.9563 14.505Z" stroke="#5243C2" stroke-linecap="round" stroke-linejoin="round"/>
</svg>
