<svg width="24" height="24" viewBox="0 0 24 24" fill="none" xmlns="http://www.w3.org/2000/svg">
<g clip-path="url(#clip0)">
<path d="M12.0008 20.9996C9.00783 20.9991 6.01784 20.8187 3.04672 20.4596C1.71059 20.2831 0.653368 19.2423 0.455769 17.9093C-0.150946 13.9921 -0.150946 10.0048 0.455769 6.0876C0.653368 4.75458 1.71059 3.71385 3.04672 3.53731C8.99447 2.8209 15.0069 2.8209 20.9548 3.53731C22.2907 3.71385 23.348 4.75458 23.5456 6.0876C24.1525 10.0048 24.1525 13.9921 23.5456 17.9093C23.348 19.2423 22.2907 20.2831 20.9548 20.4596C17.9835 20.8187 14.9935 20.9991 12.0008 20.9996Z" fill="#EA0000"/>
<path d="M10.4929 10.6453C10.1204 10.4139 9.72531 10.222 9.31891 10.064C8.96896 10.5833 8.76576 11.2041 8.76576 11.8758C8.76576 12.2088 8.81656 12.5306 8.91251 12.8354C9.08185 12.4459 9.29633 12.0677 9.55597 11.7065C9.83255 11.3114 10.1486 10.9558 10.4929 10.6453ZM9.49953 9.82691C9.93979 9.9793 10.3631 10.1769 10.7695 10.4083C10.8598 10.3293 10.9558 10.2615 11.0461 10.1938C10.6171 9.95673 10.1599 9.76482 9.69144 9.61806C9.62371 9.6858 9.55597 9.75353 9.49953 9.82691ZM9.89464 9.42615C10.4026 9.56162 10.8881 9.74788 11.3453 9.99059C11.4525 9.92286 11.5597 9.86077 11.6613 9.79868C11.1759 9.55033 10.6623 9.36971 10.1317 9.23989C10.047 9.29633 9.96802 9.35842 9.89464 9.42615ZM10.3744 9.08749C10.9332 9.20038 11.4751 9.381 11.9831 9.62935C12.4967 9.381 13.0386 9.20038 13.5917 9.08749C13.1232 8.81091 12.5701 8.65287 11.9831 8.65287C11.396 8.65287 10.8485 8.81091 10.3744 9.08749ZM13.8344 9.24553C13.3039 9.36971 12.7902 9.55597 12.3048 9.79868C12.412 9.86077 12.5136 9.92286 12.6209 9.99059C13.0837 9.74788 13.5691 9.56162 14.0715 9.42615C13.9981 9.35842 13.9191 9.29633 13.8344 9.24553ZM14.2747 9.62371C13.8062 9.76482 13.3547 9.95673 12.92 10.1938C13.016 10.2615 13.1119 10.3349 13.2023 10.4083C13.603 10.1769 14.0263 9.9793 14.4666 9.82691C14.4102 9.75353 14.3481 9.6858 14.2747 9.62371ZM14.6472 10.0696C14.2408 10.222 13.8514 10.4139 13.4788 10.6453C13.8231 10.9558 14.1336 11.3114 14.4158 11.7065C14.6698 12.0677 14.8843 12.4459 15.0593 12.8354C15.1496 12.5249 15.2004 12.2088 15.2004 11.8758C15.2004 11.2041 14.9972 10.5833 14.6472 10.0696ZM14.3707 12.2822C14.032 11.7347 13.6256 11.2493 13.174 10.8373C13.0724 10.9106 12.9652 10.984 12.8692 11.0574C13.6312 11.7686 14.2465 12.6604 14.6359 13.699C14.7262 13.5635 14.8109 13.4224 14.8786 13.2813C14.7375 12.9426 14.5682 12.6096 14.3707 12.2822ZM12.5814 10.8147C12.683 10.7413 12.7846 10.6679 12.8918 10.6002C12.8015 10.5212 12.7056 10.4478 12.6096 10.3744C12.5024 10.4421 12.3951 10.5099 12.2879 10.5833H12.2935C12.3895 10.6566 12.4854 10.7357 12.5814 10.8147ZM11.9831 10.3631C12.0903 10.2954 12.2032 10.2277 12.3048 10.1656C12.1976 10.0978 12.0903 10.0301 11.9831 9.96802C11.8758 10.0301 11.7742 10.0978 11.667 10.1656C11.7742 10.2277 11.8758 10.2954 11.9831 10.3631ZM11.6783 10.5833C11.571 10.5099 11.4694 10.4421 11.3622 10.3744C11.2662 10.4478 11.1703 10.5212 11.0743 10.5945C11.1816 10.6679 11.2832 10.7357 11.3848 10.809C11.4807 10.73 11.5767 10.6566 11.6783 10.5833ZM11.9831 10.809C11.8871 10.8824 11.7912 10.9614 11.6896 11.0461C11.7912 11.1251 11.8871 11.2098 11.9831 11.2945C12.079 11.2098 12.175 11.1251 12.2766 11.0461C12.1806 10.9671 12.0847 10.8824 11.9831 10.809ZM11.9831 11.8645C11.5541 12.3274 11.1759 12.858 10.8711 13.4506C10.6623 13.8457 10.4986 14.2578 10.3744 14.6698C10.8485 14.9351 11.396 15.0931 11.9831 15.0931C12.5701 15.0931 13.1176 14.9351 13.5917 14.6698C13.4675 14.2578 13.3039 13.8457 13.095 13.4506C12.7902 12.858 12.4177 12.3274 11.9831 11.8645ZM10.1204 14.0038C10.4873 13.0668 11.0292 12.2484 11.6952 11.571C11.5992 11.4807 11.5033 11.396 11.4017 11.3057C10.6284 12.0564 10.0075 12.9878 9.62935 14.0659C9.73659 14.1844 9.84948 14.2916 9.97366 14.3932C10.0188 14.2634 10.0696 14.1336 10.1204 14.0038ZM12.2709 11.571C12.937 12.2484 13.4788 13.0668 13.8514 14.0038C13.9022 14.1336 13.9473 14.2634 13.9925 14.3932C14.1167 14.2916 14.2352 14.1844 14.3424 14.0659C13.9586 12.9878 13.3377 12.0564 12.5644 11.3057C12.4628 11.396 12.3669 11.4807 12.2709 11.571ZM9.3302 13.699C9.71966 12.6604 10.3349 11.7742 11.1025 11.063C11.0009 10.984 10.8993 10.9106 10.7921 10.8373C10.3405 11.2549 9.93415 11.7404 9.59548 12.2879C9.39793 12.6096 9.2286 12.9426 9.08749 13.2813C9.15522 13.428 9.23989 13.5635 9.3302 13.699ZM12 8.39323C13.9868 8.39323 15.6068 10.0132 15.6068 12C15.6068 13.9868 13.9868 15.6068 12 15.6068C10.0132 15.6068 8.39323 13.9868 8.39323 12C8.39323 10.0132 10.0132 8.39323 12 8.39323ZM13.5917 7.60301C13.4901 7.72154 13.3772 7.87394 13.2643 8.11665C13.2361 8.05456 13.2361 7.98119 13.2531 7.90216C13.2813 7.64252 13.3547 7.48448 13.4901 7.26435C13.5353 7.18532 13.5804 7.11759 13.603 7.03293C13.6877 6.77893 13.6707 6.44026 13.4845 6.17498C13.5127 6.47413 13.4224 6.72248 13.3208 6.87488C13.3039 6.9031 13.2869 6.92004 13.2643 6.94262C13.1571 7.04986 13.0386 7.1571 12.8862 7.40546C12.8015 7.54092 12.7168 7.70461 12.6378 7.96425C12.604 7.90781 12.5927 7.84008 12.5983 7.76105C12.587 7.49577 12.6322 7.33208 12.7281 7.08937C12.762 7.0047 12.7959 6.93133 12.8071 6.84102C12.8467 6.58137 12.7789 6.24835 12.5532 6.01693C12.6265 6.3048 12.5814 6.56444 12.5024 6.73377C12.4854 6.76199 12.4741 6.78457 12.4572 6.80715C12.3669 6.93133 12.2709 7.0555 12.1524 7.32079C12.096 7.47319 12.0339 7.64817 12 7.91345C11.9548 7.86265 11.9323 7.79492 11.9266 7.7159C11.8758 7.45626 11.8928 7.28692 11.9492 7.03293C11.9718 6.94826 11.9944 6.86924 11.9887 6.77893C11.9887 6.51364 11.8702 6.19755 11.6105 6C11.7291 6.27658 11.7234 6.54186 11.6726 6.72248C11.6613 6.74506 11.65 6.77328 11.6388 6.79586C11.571 6.93697 11.492 7.07244 11.4186 7.35466C11.3848 7.5127 11.3509 7.69897 11.3565 7.96425C11.3114 7.9191 11.2775 7.85701 11.2549 7.78363C11.1646 7.52963 11.1533 7.36595 11.1759 7.10066C11.1816 7.01035 11.1872 6.93133 11.1759 6.84666C11.1308 6.58137 10.9614 6.28786 10.6792 6.13547C10.8373 6.38946 10.8711 6.65475 10.8485 6.83537C10.8429 6.86359 10.8373 6.89182 10.8316 6.92004C10.7865 7.06679 10.73 7.21355 10.7018 7.50706C10.6905 7.6651 10.6849 7.85136 10.7357 8.11665C10.6792 8.07714 10.6397 8.0207 10.6058 7.95296C10.476 7.7159 10.4421 7.55221 10.4196 7.29257C10.4139 7.20226 10.4083 7.12324 10.3744 7.03857C10.2954 6.78457 10.0809 6.51929 9.77611 6.41769C9.97366 6.63782 10.0527 6.89182 10.0527 7.07808C10.0527 7.1063 10.0527 7.13453 10.047 7.16275C10.0245 7.31515 9.99624 7.47319 10.0132 7.76105C10.0301 7.9191 10.0527 8.10536 10.143 8.35936C10.0809 8.33114 10.0301 8.28034 9.98495 8.21825C9.82126 8.00941 9.76482 7.85136 9.70273 7.59737C9.68015 7.50706 9.66322 7.43368 9.61806 7.34901C9.49953 7.11759 9.24553 6.88617 8.92945 6.82973C9.15522 7.02164 9.27375 7.26435 9.30762 7.44497C9.31326 7.47319 9.31326 7.50141 9.31326 7.52963C9.31891 7.68203 9.31327 7.84008 9.37535 8.12794C9.41486 8.28034 9.46566 8.46096 9.59548 8.69238C9.5334 8.67545 9.47695 8.63594 9.42051 8.57949C9.22295 8.39887 9.13829 8.25212 9.04233 8.00941C9.00847 7.92474 8.9746 7.85136 8.9238 7.77799C8.76576 7.56914 8.48354 7.38288 8.15616 7.37724C8.4158 7.52963 8.5682 7.74412 8.63029 7.9191C8.63594 7.94732 8.64158 7.97554 8.64723 8.00376C8.67545 8.15616 8.69238 8.31421 8.79962 8.58514C8.86171 8.73189 8.94638 8.90122 9.11007 9.11007C9.04233 9.10442 8.98025 9.07056 8.91816 9.0254C8.69803 8.87865 8.59078 8.74318 8.44967 8.52305C8.40452 8.44403 8.36501 8.37629 8.29727 8.31421C8.11101 8.12794 7.80057 7.98683 7.47883 8.03199C7.75541 8.14487 7.94168 8.33678 8.03199 8.50047C8.04327 8.52305 8.05456 8.55127 8.06585 8.57949C8.11665 8.7206 8.15616 8.873 8.30292 9.127C8.38758 9.26247 8.49483 9.41486 8.69238 9.60113C8.62465 9.60113 8.55692 9.57855 8.48918 9.54469C8.24647 9.4318 8.1223 9.31891 7.95296 9.12136C7.89088 9.05362 7.84008 8.99153 7.7667 8.93509C7.55221 8.78269 7.22484 8.69238 6.91439 8.78834C7.2079 8.85607 7.42239 9.01411 7.52963 9.16087C7.55221 9.18344 7.5635 9.20602 7.57479 9.23424C7.64817 9.36971 7.7159 9.51646 7.90216 9.7366C8.00376 9.86077 8.13358 9.99624 8.35372 10.1486C8.29163 10.1599 8.2239 10.1486 8.14487 10.1204C7.89088 10.0527 7.74977 9.95673 7.55221 9.7874C7.48448 9.73095 7.42239 9.68015 7.34337 9.635C7.1063 9.51646 6.76764 9.4826 6.47413 9.62371C6.77328 9.64064 7.01035 9.77046 7.14581 9.89464C7.16275 9.91722 7.17968 9.93415 7.19661 9.96237C7.29257 10.0809 7.37724 10.2164 7.59737 10.4083C7.7159 10.5099 7.8683 10.6228 8.11101 10.7413C8.04892 10.7639 7.97554 10.7639 7.90216 10.7469C7.63688 10.7187 7.48448 10.6453 7.2587 10.5099C7.17968 10.4647 7.11195 10.4196 7.02728 10.397C6.77328 10.3123 6.44026 10.3293 6.17498 10.5155C6.46849 10.4873 6.72248 10.5776 6.87488 10.6792C6.89746 10.6961 6.92004 10.7131 6.93697 10.7357C7.04986 10.8429 7.1571 10.9614 7.39981 11.1138C7.53528 11.1985 7.70461 11.2888 7.95861 11.3622C7.90216 11.396 7.83443 11.4073 7.75541 11.4073C7.49012 11.413 7.32644 11.3678 7.08373 11.2719C6.99906 11.238 6.92568 11.2041 6.83537 11.1929C6.57573 11.1533 6.24271 11.2211 6.01129 11.4468C6.29915 11.3735 6.56444 11.4186 6.72813 11.4976C6.75635 11.5146 6.77893 11.5259 6.80151 11.5428C6.92568 11.6331 7.04986 11.7291 7.32079 11.8476C7.46755 11.904 7.64252 11.9661 7.90781 12C7.85701 12.0452 7.78928 12.0677 7.7159 12.0734C7.45061 12.1298 7.28692 12.1072 7.02728 12.0508C6.94262 12.0282 6.86359 12.0113 6.77328 12.0113C6.508 12.0113 6.19191 12.1298 6 12.3895C6.27093 12.2709 6.53622 12.2766 6.71684 12.3274C6.74506 12.3387 6.76764 12.35 6.79586 12.3612C6.93133 12.429 7.07244 12.508 7.35466 12.5814C7.50706 12.6152 7.69332 12.6491 7.95861 12.6435C7.91345 12.6886 7.85136 12.7225 7.77799 12.7451C7.52963 12.8354 7.3603 12.8467 7.10066 12.8241C7.01035 12.8184 6.93133 12.8128 6.84102 12.8241C6.58137 12.8692 6.28786 13.0386 6.13547 13.3264C6.38382 13.1627 6.64911 13.1289 6.83537 13.1515C6.86359 13.1571 6.88617 13.1627 6.91439 13.1684C7.06115 13.2192 7.2079 13.27 7.50141 13.2982C7.65946 13.3095 7.84572 13.3151 8.11101 13.2643C8.0715 13.3208 8.01505 13.3603 7.94732 13.3942C7.7159 13.524 7.54657 13.5579 7.28692 13.5804C7.19661 13.5917 7.11759 13.5974 7.03293 13.6256C6.77893 13.7046 6.51929 13.9191 6.41204 14.2239C6.63782 14.0263 6.89182 13.953 7.07808 13.9473C7.1063 13.9473 7.13453 13.9473 7.16275 13.953C7.3095 13.9755 7.46755 14.0038 7.76105 13.9868C7.9191 13.9755 8.10536 13.9473 8.35372 13.857C8.33114 13.9191 8.28034 13.9699 8.21261 14.0151C8.00376 14.1787 7.84572 14.2352 7.59172 14.2973C7.50706 14.3198 7.42804 14.3368 7.34901 14.3819C7.11195 14.5005 6.88617 14.7545 6.82973 15.0706C7.01599 14.8448 7.2587 14.7262 7.43932 14.6924C7.46755 14.6867 7.49577 14.6867 7.52399 14.6867C7.67639 14.6811 7.84008 14.6867 8.1223 14.6246C8.2747 14.5851 8.45532 14.5343 8.69238 14.4045C8.67545 14.4666 8.63029 14.5287 8.57385 14.5795C8.39323 14.777 8.24647 14.8617 8.00376 14.9577C7.92474 14.9972 7.85136 15.0254 7.77799 15.0762C7.5635 15.2342 7.37723 15.5165 7.37159 15.8438C7.52399 15.5842 7.74412 15.4318 7.9191 15.3697C7.94732 15.3641 7.9699 15.3584 7.99812 15.3528C8.15052 15.3246 8.30856 15.3076 8.57949 15.2004C8.72625 15.1383 8.89558 15.0536 9.11007 14.8956C9.09878 14.9577 9.07056 15.0198 9.01976 15.0818C8.873 15.302 8.74318 15.4092 8.5174 15.5503C8.44403 15.5955 8.37629 15.635 8.30856 15.7027C8.1223 15.889 7.98683 16.1994 8.03199 16.5212C8.13923 16.2446 8.33114 16.0583 8.49483 15.968C8.52305 15.9567 8.54563 15.9454 8.57385 15.9341C8.7206 15.889 8.873 15.8438 9.12136 15.6971C9.25682 15.6124 9.40922 15.5052 9.59548 15.3076C9.60113 15.3754 9.57855 15.4431 9.53904 15.5108C9.42615 15.7535 9.31327 15.8777 9.11571 16.047C9.04798 16.1091 8.98589 16.1599 8.93509 16.2333C8.78269 16.4478 8.69238 16.7752 8.78834 17.0856C8.85042 16.7921 9.00847 16.5776 9.16087 16.4704C9.18344 16.4534 9.20602 16.4365 9.2286 16.4252C9.36407 16.3518 9.51082 16.2841 9.7366 16.0978C9.85513 15.9962 9.99059 15.8664 10.143 15.6463C10.1543 15.7084 10.143 15.7818 10.1204 15.8551C10.047 16.1091 9.95673 16.2502 9.78175 16.4478C9.72531 16.5155 9.67451 16.5776 9.635 16.6623C9.51646 16.8993 9.47695 17.2324 9.61806 17.5259C9.64064 17.2267 9.76482 16.9897 9.89464 16.8598C9.91157 16.8373 9.93415 16.8203 9.95673 16.8034C10.0809 16.7074 10.2107 16.6228 10.4026 16.4026C10.5042 16.2841 10.6171 16.1317 10.7357 15.889C10.7582 15.9511 10.7582 16.0245 10.7469 16.0978C10.7131 16.3631 10.6453 16.5155 10.5099 16.7413C10.4591 16.8203 10.4196 16.8881 10.3913 16.9727C10.3123 17.2267 10.3293 17.5654 10.5155 17.8307C10.4873 17.5315 10.572 17.2775 10.6792 17.1251C10.6961 17.1025 10.7131 17.08 10.73 17.063C10.8373 16.9501 10.9558 16.8429 11.1138 16.6002C11.1929 16.4647 11.2832 16.2954 11.3565 16.0414C11.3904 16.0978 11.4017 16.1656 11.4017 16.2446C11.413 16.5099 11.3678 16.6736 11.2662 16.9163C11.2324 17.0009 11.2041 17.0743 11.1872 17.1646C11.1477 17.4243 11.2154 17.7573 11.4412 17.9887C11.3678 17.7008 11.413 17.4356 11.4976 17.2719C11.5089 17.2437 11.5202 17.2211 11.5372 17.1985C11.6275 17.0743 11.7291 16.9501 11.842 16.6792C11.904 16.5325 11.9661 16.3575 12 16.0922C12.0395 16.143 12.0621 16.2107 12.0734 16.2841C12.1242 16.5494 12.1072 16.7131 12.0452 16.9727C12.0226 17.0574 12.0056 17.1364 12.0056 17.2267C12.0056 17.492 12.1298 17.8081 12.3895 18C12.2709 17.7291 12.2709 17.4638 12.3274 17.2832C12.333 17.2549 12.3443 17.2324 12.3556 17.2041C12.4233 17.0687 12.5024 16.9276 12.5757 16.6453C12.6096 16.4929 12.6435 16.3067 12.6378 16.0414C12.6886 16.0865 12.7168 16.1486 12.7394 16.222C12.8354 16.4704 12.841 16.6397 12.8241 16.905C12.8128 16.9897 12.8072 17.0687 12.8241 17.159C12.8636 17.4243 13.0329 17.7178 13.3208 17.8702C13.1627 17.6162 13.1232 17.3509 13.1515 17.1703C13.1515 17.1421 13.1571 17.1138 13.1684 17.0856C13.2135 16.9389 13.27 16.7921 13.2982 16.4986C13.3039 16.3405 13.3095 16.1543 13.2643 15.889C13.3151 15.9285 13.3603 15.9849 13.3942 16.0527C13.524 16.2841 13.5579 16.4534 13.5804 16.7131C13.5861 16.8034 13.5917 16.8824 13.6199 16.9671C13.7046 17.2211 13.9135 17.4807 14.2239 17.588C14.0263 17.3622 13.9473 17.1082 13.9417 16.9219C13.9417 16.8937 13.9417 16.8655 13.9473 16.8373C13.9699 16.6905 14.0038 16.5325 13.9812 16.2389C13.9699 16.0809 13.9417 15.8946 13.857 15.6463C13.9135 15.6745 13.9643 15.7197 14.0094 15.7874C14.1731 15.9962 14.2352 16.1543 14.2973 16.4083C14.3142 16.4929 14.3368 16.572 14.3763 16.651C14.5005 16.8881 14.7488 17.1138 15.0706 17.1703C14.8391 16.984 14.7206 16.7413 14.6867 16.5607C14.6811 16.5325 14.6811 16.5042 14.6811 16.476C14.6811 16.3236 14.6867 16.1656 14.6246 15.8777C14.5851 15.7253 14.5287 15.5447 14.3989 15.3076C14.4666 15.3246 14.523 15.3697 14.5738 15.4262C14.7714 15.6068 14.8561 15.7535 14.9577 15.9962C14.9915 16.0753 15.0198 16.1486 15.0762 16.222C15.2342 16.4365 15.5165 16.6228 15.8382 16.6284C15.5842 16.476 15.4318 16.2559 15.3697 16.0809C15.3584 16.0527 15.3528 16.0301 15.3471 16.0019C15.3246 15.8495 15.302 15.6914 15.1947 15.4205C15.1326 15.2738 15.0536 15.1044 14.8899 14.8956C14.9577 14.9012 15.0198 14.9294 15.0818 14.9802C15.302 15.127 15.4092 15.2568 15.5447 15.4826C15.5898 15.556 15.635 15.6294 15.6971 15.6914C15.8833 15.8777 16.1938 16.0132 16.5155 15.968C16.2389 15.8608 16.0527 15.6689 15.968 15.5052C15.9511 15.477 15.9398 15.4544 15.9342 15.4262C15.8834 15.2794 15.8382 15.127 15.6914 14.8786C15.6068 14.7432 15.4995 14.5908 15.3076 14.4045C15.3697 14.4045 15.4374 14.4214 15.5108 14.461C15.7479 14.5738 15.8777 14.6867 16.047 14.8843C16.1035 14.952 16.1543 15.0141 16.2277 15.0649C16.4421 15.223 16.7695 15.3076 17.08 15.2173C16.7921 15.1496 16.5776 14.9915 16.4647 14.8391C16.4478 14.8166 16.4309 14.794 16.4196 14.7714C16.3462 14.6359 16.2841 14.4892 16.0978 14.2634C15.9906 14.1449 15.8608 14.0094 15.6406 13.857C15.7084 13.8457 15.7761 13.857 15.8495 13.8796C16.1035 13.953 16.2446 14.0489 16.4478 14.2183C16.5155 14.2747 16.5776 14.3255 16.6566 14.365C16.8937 14.4835 17.2267 14.523 17.5202 14.3819C17.2211 14.3594 16.9897 14.2352 16.8542 14.1054C16.8316 14.0884 16.8147 14.0659 16.7977 14.0433C16.7074 13.9191 16.6171 13.7893 16.4026 13.5974C16.2785 13.4958 16.1261 13.3829 15.889 13.2643C15.9511 13.2418 16.0188 13.2418 16.0978 13.2531C16.3575 13.2869 16.5155 13.3547 16.7357 13.4958C16.8147 13.5409 16.8824 13.5804 16.9671 13.6087C17.2211 13.6877 17.5597 13.6707 17.825 13.4845C17.5259 13.5127 17.2775 13.428 17.1251 13.3208C17.1025 13.3039 17.08 13.2869 17.0574 13.27C16.9501 13.1627 16.8429 13.0442 16.5945 12.8862C16.4591 12.8072 16.2954 12.7168 16.0357 12.6435C16.0922 12.6096 16.1656 12.5983 16.2389 12.5983C16.5099 12.587 16.6736 12.6322 16.9106 12.7338C16.9953 12.7676 17.0687 12.7959 17.159 12.8128C17.4186 12.8523 17.7516 12.7846 17.9831 12.5588C17.6952 12.6322 17.4356 12.587 17.2662 12.5024C17.2437 12.4911 17.2154 12.4798 17.1929 12.4628C17.0687 12.3725 16.9445 12.2766 16.6792 12.158C16.5325 12.1016 16.3518 12.0395 16.0865 12C16.1373 11.9605 16.2051 11.9379 16.2841 11.9266C16.5437 11.8758 16.7131 11.8928 16.9671 11.9548C17.0517 11.9774 17.1308 11.9944 17.2211 11.9944C17.4864 11.9944 17.8024 11.8702 18 11.6162C17.7234 11.7291 17.4581 11.7291 17.2832 11.6726C17.2549 11.667 17.2267 11.6557 17.2041 11.6444C17.063 11.5767 16.9276 11.4976 16.6453 11.4243C16.4873 11.3904 16.3067 11.3565 16.0357 11.3622C16.0809 11.3114 16.143 11.2832 16.2164 11.2606C16.4704 11.1646 16.6397 11.159 16.8993 11.1759C16.9897 11.1872 17.0687 11.1929 17.159 11.1759C17.4186 11.1364 17.7121 10.9671 17.8645 10.6792C17.6105 10.8373 17.3509 10.8768 17.1646 10.8542C17.1364 10.8485 17.1082 10.8429 17.08 10.8316C16.9332 10.7865 16.7865 10.73 16.4986 10.7018C16.3405 10.6961 16.1486 10.6905 15.889 10.7413C15.9229 10.6849 15.9793 10.6397 16.0527 10.6058C16.2841 10.476 16.4478 10.4421 16.7074 10.4196C16.7977 10.4139 16.8768 10.4083 16.9614 10.3801C17.2154 10.2954 17.4807 10.0865 17.5823 9.77611C17.3622 9.97366 17.1082 10.0527 16.9219 10.0583C16.8937 10.0583 16.8655 10.0583 16.8373 10.0527C16.6849 10.0301 16.5268 9.99624 16.2389 10.0188C16.0809 10.0301 15.8946 10.0583 15.6406 10.1486C15.6689 10.0865 15.7197 10.0357 15.7817 9.99059C15.9906 9.82691 16.1486 9.76482 16.4026 9.70273C16.4929 9.6858 16.5663 9.66322 16.651 9.62371C16.8824 9.49953 17.1138 9.25118 17.1703 8.92945C16.9784 9.16087 16.7413 9.2794 16.555 9.31326C16.5268 9.31891 16.4986 9.31891 16.4704 9.31891C16.318 9.31891 16.1599 9.31326 15.8777 9.37535C15.7197 9.41486 15.539 9.47131 15.3076 9.60113C15.3246 9.5334 15.3641 9.47695 15.4205 9.42615C15.6011 9.2286 15.7479 9.14393 15.9906 9.04233C16.0753 9.00847 16.1486 8.98025 16.222 8.9238C16.4309 8.76576 16.6171 8.48354 16.6228 8.16181C16.4704 8.4158 16.2559 8.5682 16.0809 8.63029C16.0527 8.64158 16.0245 8.64723 15.9962 8.65287C15.8438 8.68109 15.6858 8.69802 15.4149 8.80527C15.2738 8.86736 15.1044 8.94638 14.8899 9.11007C14.8956 9.04798 14.9294 8.98025 14.9746 8.91816C15.1214 8.69802 15.2568 8.59078 15.477 8.45532C15.556 8.41016 15.6237 8.36501 15.6858 8.30292C15.8721 8.11665 16.0132 7.80621 15.968 7.48448C15.8551 7.76105 15.6632 7.94732 15.4995 8.03763C15.477 8.04892 15.4487 8.06021 15.4262 8.06585C15.2794 8.11665 15.127 8.16181 14.873 8.30856C14.7375 8.39323 14.5851 8.50047 14.3989 8.69238C14.3989 8.63029 14.4214 8.56256 14.4553 8.49483C14.5682 8.25212 14.6811 8.12794 14.8786 7.95296C14.9464 7.89652 15.0085 7.84572 15.0649 7.77234C15.2173 7.55786 15.3076 7.23048 15.2117 6.92004C15.1439 7.2079 14.9859 7.42239 14.8391 7.53528C14.8166 7.55221 14.794 7.56914 14.7658 7.58043C14.6303 7.65381 14.4835 7.7159 14.2634 7.90216C14.1392 8.00941 14.0038 8.13923 13.857 8.35936C13.8401 8.29727 13.8514 8.2239 13.8796 8.15052C13.953 7.89652 14.0433 7.75541 14.2126 7.55221C14.2691 7.48448 14.3255 7.42803 14.365 7.34337C14.4835 7.1063 14.5174 6.77328 14.3763 6.47977C14.3594 6.77893 14.2352 7.01035 14.1054 7.14581C14.0828 7.16839 14.0659 7.18532 14.0433 7.20226C13.9191 7.29257 13.7836 7.38288 13.5917 7.60301Z" fill="#FFFF00"/>
</g>
<defs>
<clipPath id="clip0">
<rect width="24" height="24" fill="white"/>
</clipPath>
</defs>
</svg>
