<svg width="200" height="40" viewBox="0 0 266 74" fill="none" xmlns="http://www.w3.org/2000/svg">
    <path d="M94.5029 64.7052C89.7103 64.7052 85.5955 63.8581 82.1584 62.1637C78.7213 60.4694 75.9135 58.2667 73.735 55.5558C71.605 52.8448 70.0317 49.8918 69.0151 46.6967C67.9984 43.5017 67.4901 40.4277 67.4901 37.4746V35.8771C67.4901 32.5852 67.9984 29.3418 69.0151 26.1467C70.0801 22.9517 71.7018 20.0471 73.8803 17.4329C76.0587 14.8188 78.8181 12.7372 82.1584 11.188C85.5471 9.59051 89.5409 8.79175 94.1398 8.79175C98.9324 8.79175 103.096 9.66313 106.63 11.4059C110.212 13.1002 113.068 15.5207 115.198 18.6674C117.328 21.7656 118.611 25.3964 119.047 29.5596H108.663C108.276 27.1391 107.404 25.1059 106.049 23.46C104.742 21.7656 103.071 20.507 101.038 19.684C99.005 18.8126 96.7056 18.3769 94.1398 18.3769C91.5257 18.3769 89.202 18.8368 87.1688 19.7566C85.1356 20.628 83.4412 21.8866 82.0857 23.5326C80.7303 25.1785 79.6895 27.1149 78.9633 29.3418C78.2856 31.5686 77.9467 34.0375 77.9467 36.7485C77.9467 39.3626 78.2856 41.7831 78.9633 44.01C79.6895 46.2369 80.7545 48.1975 82.1584 49.8918C83.5622 51.5377 85.2808 52.8206 87.314 53.7404C89.3956 54.6602 91.7919 55.1201 94.5029 55.1201C98.4725 55.1201 101.813 54.1519 104.524 52.2155C107.283 50.2307 108.953 47.4713 109.534 43.9374H119.918C119.434 47.7134 118.151 51.1747 116.07 54.3213C113.988 57.468 111.132 59.9853 107.501 61.8733C103.87 63.7612 99.5375 64.7052 94.5029 64.7052Z"
          fill="black"/>
    <path d="M124.19 63.3256V8.79175H134.283V30.5941C135.292 28.1097 136.72 26.1915 138.568 24.8397C140.601 23.3874 143.167 22.6612 146.265 22.6612H146.701C151.203 22.6612 154.616 24.2103 156.939 27.3086C159.263 30.4068 160.425 34.9089 160.425 40.8149V63.3256H150.331V39.8709C150.331 37.3536 149.605 35.3688 148.153 33.9165C146.749 32.4642 144.885 31.7381 142.562 31.7381C140.093 31.7381 138.084 32.561 136.534 34.207C135.034 35.8045 134.283 37.9103 134.283 40.5245V63.3256H124.19Z"
          fill="black"/>
    <path fill-rule="evenodd" clip-rule="evenodd"
          d="M191.536 55.7321V63.3256H199.523V38.8543C199.523 35.1752 198.821 32.198 197.418 29.9227C196.062 27.6474 194.029 25.9773 191.318 24.9123C188.655 23.8472 185.291 23.3147 181.224 23.3147C179.917 23.3147 178.513 23.3389 177.013 23.3874C175.56 23.3874 174.132 23.4358 172.728 23.5326C171.325 23.6294 170.066 23.7262 168.952 23.823V32.3916C170.308 32.2948 171.833 32.2222 173.527 32.1738C175.27 32.0769 176.989 32.0043 178.683 31.9559C180.377 31.9075 181.83 31.8833 183.04 31.8833C185.363 31.8833 187.082 32.44 188.195 33.5534C189.309 34.6669 189.866 36.3612 189.866 38.6365V38.9996H181.805C178.32 38.9996 175.27 39.4595 172.656 40.3792C170.09 41.299 168.081 42.6787 166.629 44.5183C165.225 46.3579 164.523 48.73 164.523 51.6346C164.523 54.2971 165.104 56.5724 166.266 58.4604C167.476 60.3483 169.146 61.8007 171.276 62.8173C173.455 63.8339 175.972 64.3422 178.828 64.3422C181.587 64.3422 183.911 63.8581 185.799 62.8899C187.736 61.8733 189.236 60.421 190.301 58.533C190.8 57.6869 191.212 56.7532 191.536 55.7321ZM189.866 48.73V45.0266H181.66C179.336 45.0266 177.545 45.6075 176.287 46.7694C175.076 47.8828 174.471 49.3351 174.471 51.1263C174.471 52.9174 175.076 54.3697 176.287 55.4832C177.545 56.5966 179.336 57.1533 181.66 57.1533C183.064 57.1533 184.347 56.9112 185.509 56.4271C186.719 55.8946 187.711 55.0233 188.486 53.813C189.309 52.5543 189.769 50.86 189.866 48.73Z"
          fill="black"/>
    <path d="M208.592 63.3256V23.3147H218.686V63.3256H208.592Z" fill="black"/>
    <path d="M226.688 23.3147V63.3256H236.781V40.1614C236.781 37.5957 237.531 35.5625 239.032 34.0617C240.581 32.5126 242.59 31.7381 245.059 31.7381C247.48 31.7381 249.368 32.4884 250.723 33.9891C252.127 35.4898 252.829 37.4504 252.829 39.8709V63.3256H262.922V40.7423C262.922 34.7395 261.712 30.2374 259.292 27.2359C256.871 24.1861 253.313 22.6612 248.617 22.6612H248.182C245.035 22.6612 242.397 23.3389 240.267 24.6944C238.185 26.0499 236.612 28.0831 235.547 30.7941C235.2 31.6615 234.909 32.6009 234.675 33.6122V23.3147H226.688Z"
          fill="black"/>
    <path d="M4.07755 46.6277C4.07754 50.1709 6.95041 53.0444 10.4942 53.0444C14.038 53.0444 16.9109 50.1709 16.9109 46.6277C16.9109 44.0299 13.1442 41.5861 13.1442 37.0027C13.1442 32.8777 16.9109 29.9756 16.9109 27.3777C16.9109 23.8346 14.038 20.9611 10.4942 20.9611C6.95041 20.9611 4.07755 23.8346 4.07755 27.3777C4.07755 29.9756 7.84425 32.8777 7.84425 37.0027C7.84425 41.1277 4.07755 44.0299 4.07755 46.6277Z"
          fill="black"/>
    <path d="M35.2434 7.20841C35.2434 3.66528 38.1162 0.791748 41.66 0.791748C45.2038 0.791749 48.0767 3.66528 48.0767 7.20841C48.0767 8.32419 47.3818 9.41156 46.589 10.6522C45.5359 12.3002 44.31 14.2186 44.31 16.8334C44.31 19.1333 45.4809 21.053 46.517 22.7518C47.3393 24.1 48.0767 25.309 48.0767 26.4584C48.0767 26.6125 48.0713 26.7653 48.0606 26.9167C48.0713 27.068 48.0767 27.2208 48.0767 27.3749C48.0767 28.4907 47.3818 29.5781 46.589 30.8187C45.5359 32.4667 44.31 34.3851 44.31 36.9999C44.31 39.2998 45.4809 41.2195 46.517 42.9183C47.3393 44.2665 48.0767 45.4755 48.0767 46.6249C48.0767 46.779 48.0713 46.9318 48.0606 47.0832C48.0713 47.2346 48.0767 47.3875 48.0767 47.5416C48.0767 48.691 47.3393 49.9 46.517 51.2482C45.4809 52.947 44.31 54.8667 44.31 57.1666C44.31 59.7814 45.5359 61.6998 46.589 63.3478C47.3818 64.5884 48.0767 65.6758 48.0767 66.7916C48.0767 70.3347 45.2038 73.2083 41.66 73.2083C38.1162 73.2083 35.2434 70.3347 35.2434 66.7916C35.2434 65.6422 35.9808 64.4332 36.803 63.085C37.8392 61.3862 39.0101 59.4664 39.0101 57.1666C39.0101 54.8667 37.8392 52.947 36.803 51.2482C35.9808 49.9 35.2434 48.691 35.2434 47.5416C35.2434 47.3875 35.2488 47.2347 35.2595 47.0833C35.2488 46.9319 35.2434 46.779 35.2434 46.6249C35.2434 45.4755 35.9808 44.2665 36.803 42.9183C37.8392 41.2195 39.0101 39.2998 39.0101 36.9999C39.0101 34.7001 37.8392 32.7803 36.803 31.0815C35.9808 29.7333 35.2434 28.5243 35.2434 27.3749C35.2434 27.2208 35.2488 27.068 35.2595 26.9167C35.2488 26.7653 35.2434 26.6125 35.2434 26.4584C35.2434 25.309 35.9808 24.1 36.803 22.7518C37.8392 21.053 39.0101 19.1333 39.0101 16.8334C39.0101 14.5335 37.8392 12.6138 36.803 10.915C35.9808 9.56684 35.2434 8.35783 35.2434 7.20841Z"
          fill="black"/>
    <path d="M26.0765 63.1264C22.5327 63.1264 19.6599 60.2529 19.6599 56.7098C19.6599 55.5603 20.3973 54.3513 21.2195 53.0032C22.2557 51.3044 23.4266 49.3846 23.4266 47.0848C23.4266 44.7849 22.2557 42.8652 21.2195 41.1663C20.3973 39.8182 19.6599 38.6092 19.6599 37.4598C19.6599 37.3057 19.6653 37.1529 19.676 37.0015C19.6653 36.8501 19.6599 36.6972 19.6599 36.5431C19.6599 35.3937 20.3973 34.1847 21.2195 32.8365C22.2557 31.1377 23.4266 29.218 23.4266 26.9181C23.4266 24.6182 22.2557 22.6985 21.2195 20.9997C20.3973 19.6515 19.6599 18.4425 19.6599 17.2931C19.6599 13.75 22.5327 10.8764 26.0765 10.8764C29.6203 10.8764 32.4932 13.75 32.4932 17.2931C32.4932 18.4089 31.7984 19.4962 31.0055 20.7369C29.9524 22.3849 28.7265 24.3033 28.7265 26.9181C28.7265 29.218 29.8974 31.1377 30.9335 32.8365C31.7558 34.1847 32.4932 35.3937 32.4932 36.5431C32.4932 36.6972 32.4878 36.85 32.4771 37.0014C32.4878 37.1528 32.4932 37.3056 32.4932 37.4598C32.4932 38.6092 31.7558 39.8182 30.9335 41.1663C29.8974 42.8652 28.7265 44.7849 28.7265 47.0848C28.7265 49.6995 29.9524 51.618 31.0055 53.2659C31.7984 54.5066 32.4932 55.594 32.4932 56.7098C32.4932 60.2529 29.6203 63.1264 26.0765 63.1264Z"
          fill="black"/>
</svg>
