<svg width="89.75" height="119.5" viewBox="0 0 359 478" fill="none" xmlns="http://www.w3.org/2000/svg">
    <!--    <rect x="0.5" y="0.5" width="357.845" height="476.25" rx="4.5" stroke="#7B61FF" stroke-dasharray="10 5"/>-->
    <!--    <rect width="318.845" height="132.417" transform="translate(20 20)" fill="#11072A"/>-->
    <!--<path d="M140.425 113.913C135.633 113.913 131.518 113.066 128.081 111.372C124.644 109.678 121.836 107.475 119.657 104.764C117.527 102.053 115.954 99.1001 114.938 95.905C113.921 92.7099 113.413 89.6359 113.413 86.6829V85.0854C113.413 81.7935 113.921 78.55 114.938 75.355C116.003 72.1599 117.624 69.2553 119.803 66.6412C121.981 64.027 124.741 61.9454 128.081 60.3963C131.47 58.7988 135.463 58 140.062 58C144.855 58 149.018 58.8714 152.552 60.6141C156.134 62.3085 158.991 64.729 161.121 67.8756C163.251 70.9739 164.534 74.6046 164.969 78.7679H154.585C154.198 76.3474 153.327 74.3142 151.971 72.6682C150.664 70.9739 148.994 69.7152 146.961 68.8922C144.927 68.0209 142.628 67.5852 140.062 67.5852C137.448 67.5852 135.124 68.0451 133.091 68.9649C131.058 69.8362 129.364 71.0949 128.008 72.7408C126.653 74.3868 125.612 76.3232 124.886 78.55C124.208 80.7769 123.869 83.2458 123.869 85.9568C123.869 88.5709 124.208 90.9914 124.886 93.2182C125.612 95.4451 126.677 97.4057 128.081 99.1001C129.485 100.746 131.203 102.029 133.236 102.949C135.318 103.868 137.714 104.328 140.425 104.328C144.395 104.328 147.735 103.36 150.446 101.424C153.206 99.4389 154.876 96.6796 155.457 93.1456H165.841C165.356 96.9216 164.074 100.383 161.992 103.53C159.91 106.676 157.054 109.194 153.423 111.082C149.793 112.97 145.46 113.913 140.425 113.913Z" fill="white"/>-->
    <!--<path d="M170.112 112.534V58H180.206V79.8023C181.214 77.3179 182.643 75.3998 184.49 74.0479C186.523 72.5956 189.089 71.8695 192.187 71.8695H192.623C197.125 71.8695 200.538 73.4186 202.862 76.5168C205.185 79.615 206.347 84.1172 206.347 90.0232V112.534H196.254V89.0792C196.254 86.5619 195.528 84.5771 194.075 83.1248C192.671 81.6725 190.808 80.9463 188.484 80.9463C186.015 80.9463 184.006 81.7693 182.457 83.4152C180.956 85.0128 180.206 87.1186 180.206 89.7327V112.534H170.112Z" fill="white"/>-->
    <!--<path fill-rule="evenodd" clip-rule="evenodd" d="M237.458 104.94V112.534H245.446V88.0626C245.446 84.3834 244.744 81.4062 243.34 79.1309C241.985 76.8557 239.951 75.1855 237.24 74.1205C234.578 73.0555 231.213 72.523 227.147 72.523C225.84 72.523 224.436 72.5472 222.935 72.5956C221.483 72.5956 220.055 72.644 218.651 72.7408C217.247 72.8377 215.988 72.9345 214.875 73.0313V81.5999C216.23 81.503 217.755 81.4304 219.45 81.382C221.192 81.2852 222.911 81.2126 224.605 81.1642C226.3 81.1158 227.752 81.0916 228.962 81.0916C231.286 81.0916 233.004 81.6483 234.118 82.7617C235.231 83.8751 235.788 85.5695 235.788 87.8447V88.2078H227.728C224.242 88.2078 221.192 88.6677 218.578 89.5875C216.013 90.5073 214.004 91.887 212.551 93.7265C211.147 95.5661 210.445 97.9382 210.445 100.843C210.445 103.505 211.026 105.781 212.188 107.669C213.398 109.557 215.069 111.009 217.199 112.026C219.377 113.042 221.894 113.55 224.751 113.55C227.51 113.55 229.834 113.066 231.722 112.098C233.658 111.082 235.159 109.629 236.224 107.741C236.723 106.895 237.134 105.961 237.458 104.94ZM235.788 97.9382V94.2349H227.583C225.259 94.2349 223.468 94.8158 222.209 95.9776C220.999 97.091 220.394 98.5433 220.394 100.335C220.394 102.126 220.999 103.578 222.209 104.691C223.468 105.805 225.259 106.362 227.583 106.362C228.986 106.362 230.269 106.119 231.431 105.635C232.641 105.103 233.634 104.232 234.408 103.021C235.231 101.763 235.691 100.068 235.788 97.9382Z" fill="white"/>-->
    <!--<path d="M254.515 112.534V72.523H264.608V112.534H254.515Z" fill="white"/>-->
    <!--<path d="M272.61 72.523V112.534H282.704V89.3697C282.704 86.8039 283.454 84.7707 284.955 83.27C286.504 81.7209 288.513 80.9463 290.982 80.9463C293.402 80.9463 295.29 81.6967 296.646 83.1974C298.049 84.6981 298.751 86.6587 298.751 89.0792V112.534H308.845V89.9506C308.845 83.9477 307.635 79.4456 305.214 76.4442C302.794 73.3944 299.236 71.8695 294.54 71.8695H294.104C290.957 71.8695 288.319 72.5472 286.189 73.9027C284.107 75.2582 282.534 77.2914 281.469 80.0023C281.122 80.8698 280.832 81.8092 280.598 82.8205V72.523H272.61Z" fill="white"/>-->
    <!--<path d="M50 95.836C50 99.3791 52.8729 102.253 56.4167 102.253C59.9605 102.253 62.8333 99.3791 62.8333 95.836C62.8333 93.2382 59.0666 90.7943 59.0666 86.211C59.0666 82.086 62.8333 79.1838 62.8333 76.586C62.8333 73.0429 59.9605 70.1693 56.4167 70.1693C52.8729 70.1693 50 73.0429 50 76.586C50 79.1838 53.7667 82.086 53.7667 86.211C53.7667 90.336 50 93.2382 50 95.836Z" fill="#22DFFD"/>-->
    <!--<path d="M81.1658 56.4167C81.1658 52.8735 84.0387 50 87.5825 50C91.1263 50 93.9992 52.8735 93.9992 56.4167C93.9992 57.5324 93.3043 58.6198 92.5115 59.8605C91.4584 61.5084 90.2324 63.4269 90.2324 66.0417C90.2324 68.3415 91.4033 70.2613 92.4395 71.9601C93.2618 73.3082 93.9992 74.5172 93.9992 75.6667C93.9992 75.8207 93.9937 75.9735 93.983 76.1249C93.9937 76.2763 93.9992 76.4291 93.9992 76.5832C93.9992 77.6989 93.3043 78.7863 92.5115 80.027C91.4584 81.6749 90.2324 83.5934 90.2324 86.2082C90.2324 88.508 91.4033 90.4278 92.4395 92.1266C93.2618 93.4747 93.9992 94.6838 93.9992 95.8332C93.9992 95.9873 93.9937 96.1401 93.983 96.2915C93.9937 96.4429 93.9992 96.5957 93.9992 96.7498C93.9992 97.8993 93.2618 99.1083 92.4395 100.456C91.4034 102.155 90.2325 104.075 90.2325 106.375C90.2325 108.99 91.4584 110.908 92.5115 112.556C93.3043 113.797 93.9992 114.884 93.9992 116C93.9992 119.543 91.1263 122.417 87.5825 122.417C84.0387 122.417 81.1658 119.543 81.1658 116C81.1658 114.85 81.9032 113.641 82.7255 112.293C83.7616 110.594 84.9325 108.675 84.9325 106.375C84.9325 104.075 83.7616 102.155 82.7255 100.456C81.9032 99.1083 81.1658 97.8993 81.1658 96.7498C81.1658 96.5957 81.1713 96.4429 81.1819 96.2915C81.1713 96.1401 81.1658 95.9873 81.1658 95.8332C81.1658 94.6837 81.9032 93.4747 82.7255 92.1266C83.7616 90.4278 84.9325 88.508 84.9325 86.2082C84.9325 83.9083 83.7616 81.9886 82.7255 80.2897C81.9032 78.9416 81.1658 77.7326 81.1658 76.5832C81.1658 76.4291 81.1713 76.2763 81.1819 76.1249C81.1713 75.9736 81.1658 75.8207 81.1658 75.6667C81.1658 74.5172 81.9032 73.3082 82.7255 71.9601C83.7616 70.2613 84.9325 68.3415 84.9325 66.0417C84.9325 63.7418 83.7616 61.8221 82.7255 60.1232C81.9032 58.7751 81.1658 57.5661 81.1658 56.4167Z" fill="#22DFFD"/>-->
    <!--<path d="M71.999 112.335C68.4552 112.335 65.5823 109.461 65.5823 105.918C65.5823 104.769 66.3197 103.56 67.142 102.211C68.1781 100.513 69.349 98.5929 69.349 96.293C69.349 93.9932 68.1781 92.0734 67.142 90.3746C66.3197 89.0264 65.5823 87.8174 65.5823 86.668C65.5823 86.5139 65.5878 86.3611 65.5985 86.2097C65.5878 86.0583 65.5823 85.9055 65.5823 85.7514C65.5823 84.6019 66.3197 83.3929 67.142 82.0448C68.1781 80.346 69.349 78.4262 69.349 76.1264C69.349 73.8265 68.1781 71.9067 67.142 70.2079C66.3197 68.8598 65.5823 67.6508 65.5823 66.5014C65.5823 62.9582 68.4552 60.0847 71.999 60.0847C75.5428 60.0847 78.4157 62.9582 78.4157 66.5014C78.4157 67.6171 77.7208 68.7045 76.928 69.9452C75.8749 71.5931 74.649 73.5116 74.649 76.1264C74.649 78.4262 75.8199 80.346 76.856 82.0448C77.6783 83.3929 78.4157 84.6019 78.4157 85.7514C78.4157 85.9054 78.4102 86.0583 78.3995 86.2096C78.4102 86.361 78.4157 86.5139 78.4157 86.668C78.4157 87.8174 77.6783 89.0264 76.856 90.3746C75.8199 92.0734 74.649 93.9932 74.649 96.293C74.649 98.9078 75.8749 100.826 76.928 102.474C77.7208 103.715 78.4157 104.802 78.4157 105.918C78.4157 109.461 75.5428 112.335 71.999 112.335Z" fill="#22DFFD"/>-->
    <path d="M140.425 266.33C135.633 266.33 131.518 265.483 128.081 263.788C124.644 262.094 121.836 259.891 119.657 257.181C117.527 254.47 115.954 251.517 114.938 248.322C113.921 245.126 113.413 242.052 113.413 239.099V237.502C113.413 234.21 113.921 230.967 114.938 227.771C116.003 224.576 117.624 221.672 119.803 219.058C121.981 216.444 124.741 214.362 128.081 212.813C131.47 211.215 135.463 210.417 140.062 210.417C144.855 210.417 149.018 211.288 152.552 213.031C156.134 214.725 158.991 217.145 161.121 220.292C163.251 223.39 164.534 227.021 164.969 231.184H154.585C154.198 228.764 153.327 226.731 151.971 225.085C150.664 223.39 148.994 222.132 146.961 221.309C144.927 220.437 142.628 220.002 140.062 220.002C137.448 220.002 135.124 220.462 133.091 221.381C131.058 222.253 129.364 223.511 128.008 225.157C126.653 226.803 125.612 228.74 124.886 230.967C124.208 233.193 123.869 235.662 123.869 238.373C123.869 240.987 124.208 243.408 124.886 245.635C125.612 247.862 126.677 249.822 128.081 251.517C129.485 253.162 131.203 254.445 133.236 255.365C135.318 256.285 137.714 256.745 140.425 256.745C144.395 256.745 147.735 255.777 150.446 253.84C153.206 251.855 154.876 249.096 155.457 245.562H165.841C165.356 249.338 164.074 252.799 161.992 255.946C159.91 259.093 157.054 261.61 153.423 263.498C149.793 265.386 145.46 266.33 140.425 266.33Z"
          fill="black"/>
    <path d="M170.112 264.95V210.417H180.206V232.219C181.214 229.734 182.643 227.816 184.49 226.464C186.523 225.012 189.089 224.286 192.187 224.286H192.623C197.125 224.286 200.538 225.835 202.862 228.933C205.185 232.032 206.347 236.534 206.347 242.44V264.95H196.254V241.496C196.254 238.978 195.528 236.994 194.075 235.541C192.671 234.089 190.808 233.363 188.484 233.363C186.015 233.363 184.006 234.186 182.457 235.832C180.956 237.429 180.206 239.535 180.206 242.149V264.95H170.112Z"
          fill="black"/>
    <path fill-rule="evenodd" clip-rule="evenodd"
          d="M237.458 257.357V264.95H245.446V240.479C245.446 236.8 244.744 233.823 243.34 231.547C241.985 229.272 239.951 227.602 237.24 226.537C234.578 225.472 231.213 224.939 227.147 224.939C225.84 224.939 224.436 224.964 222.935 225.012C221.483 225.012 220.055 225.061 218.651 225.157C217.247 225.254 215.988 225.351 214.875 225.448V234.016C216.23 233.92 217.755 233.847 219.45 233.799C221.192 233.702 222.911 233.629 224.605 233.581C226.3 233.532 227.752 233.508 228.962 233.508C231.286 233.508 233.004 234.065 234.118 235.178C235.231 236.292 235.788 237.986 235.788 240.261V240.624H227.728C224.242 240.624 221.192 241.084 218.578 242.004C216.013 242.924 214.004 244.303 212.551 246.143C211.147 247.983 210.445 250.355 210.445 253.259C210.445 255.922 211.026 258.197 212.188 260.085C213.398 261.973 215.069 263.425 217.199 264.442C219.377 265.459 221.894 265.967 224.751 265.967C227.51 265.967 229.834 265.483 231.722 264.515C233.658 263.498 235.159 262.046 236.224 260.158C236.723 259.312 237.134 258.378 237.458 257.357ZM235.788 250.355V246.651H227.583C225.259 246.651 223.468 247.232 222.209 248.394C220.999 249.508 220.394 250.96 220.394 252.751C220.394 254.542 220.999 255.994 222.209 257.108C223.468 258.221 225.259 258.778 227.583 258.778C228.986 258.778 230.269 258.536 231.431 258.052C232.641 257.519 233.634 256.648 234.408 255.438C235.231 254.179 235.691 252.485 235.788 250.355Z"
          fill="black"/>
    <path d="M254.515 264.95V224.939H264.608V264.95H254.515Z" fill="black"/>
    <path d="M272.61 224.939V264.95H282.704V241.786C282.704 239.22 283.454 237.187 284.955 235.687C286.504 234.137 288.513 233.363 290.982 233.363C293.402 233.363 295.29 234.113 296.646 235.614C298.049 237.115 298.751 239.075 298.751 241.496V264.95H308.845V242.367C308.845 236.364 307.635 231.862 305.214 228.861C302.794 225.811 299.236 224.286 294.54 224.286H294.104C290.957 224.286 288.319 224.964 286.189 226.319C284.107 227.675 282.534 229.708 281.469 232.419C281.122 233.286 280.832 234.226 280.598 235.237V224.939H272.61Z"
          fill="black"/>
    <path d="M50 248.252C50 251.796 52.8729 254.669 56.4167 254.669C59.9605 254.669 62.8333 251.796 62.8333 248.252C62.8333 245.655 59.0666 243.211 59.0666 238.627C59.0666 234.502 62.8333 231.6 62.8333 229.002C62.8333 225.459 59.9605 222.586 56.4167 222.586C52.8729 222.586 50 225.459 50 229.002C50 231.6 53.7667 234.502 53.7667 238.627C53.7667 242.752 50 245.655 50 248.252Z"
          fill="black"/>
    <path d="M81.1658 208.833C81.1658 205.29 84.0387 202.417 87.5825 202.417C91.1263 202.417 93.9992 205.29 93.9992 208.833C93.9992 209.949 93.3043 211.036 92.5115 212.277C91.4584 213.925 90.2324 215.843 90.2324 218.458C90.2324 220.758 91.4033 222.678 92.4395 224.377C93.2618 225.725 93.9992 226.934 93.9992 228.083C93.9992 228.237 93.9937 228.39 93.983 228.541C93.9937 228.693 93.9992 228.846 93.9992 229C93.9992 230.115 93.3043 231.203 92.5115 232.443C91.4584 234.091 90.2324 236.01 90.2324 238.625C90.2324 240.925 91.4033 242.844 92.4395 244.543C93.2618 245.891 93.9992 247.1 93.9992 248.25C93.9992 248.404 93.9937 248.557 93.983 248.708C93.9937 248.859 93.9992 249.012 93.9992 249.166C93.9992 250.316 93.2618 251.525 92.4395 252.873C91.4034 254.572 90.2325 256.491 90.2325 258.791C90.2325 261.406 91.4584 263.325 92.5115 264.973C93.3043 266.213 93.9992 267.301 93.9992 268.416C93.9992 271.959 91.1263 274.833 87.5825 274.833C84.0387 274.833 81.1658 271.959 81.1658 268.416C81.1658 267.267 81.9032 266.058 82.7255 264.71C83.7616 263.011 84.9325 261.091 84.9325 258.791C84.9325 256.491 83.7616 254.572 82.7255 252.873C81.9032 251.525 81.1658 250.316 81.1658 249.166C81.1658 249.012 81.1713 248.859 81.1819 248.708C81.1713 248.557 81.1658 248.404 81.1658 248.25C81.1658 247.1 81.9032 245.891 82.7255 244.543C83.7616 242.844 84.9325 240.925 84.9325 238.625C84.9325 236.325 83.7616 234.405 82.7255 232.706C81.9032 231.358 81.1658 230.149 81.1658 229C81.1658 228.846 81.1713 228.693 81.1819 228.541C81.1713 228.39 81.1658 228.237 81.1658 228.083C81.1658 226.934 81.9032 225.725 82.7255 224.377C83.7616 222.678 84.9325 220.758 84.9325 218.458C84.9325 216.158 83.7616 214.239 82.7255 212.54C81.9032 211.192 81.1658 209.983 81.1658 208.833Z"
          fill="black"/>
    <path d="M71.999 264.751C68.4552 264.751 65.5823 261.878 65.5823 258.335C65.5823 257.185 66.3197 255.976 67.142 254.628C68.1781 252.929 69.349 251.009 69.349 248.71C69.349 246.41 68.1781 244.49 67.142 242.791C66.3197 241.443 65.5823 240.234 65.5823 239.085C65.5823 238.93 65.5878 238.778 65.5985 238.626C65.5878 238.475 65.5823 238.322 65.5823 238.168C65.5823 237.018 66.3197 235.809 67.142 234.461C68.1781 232.762 69.349 230.843 69.349 228.543C69.349 226.243 68.1781 224.323 67.142 222.624C66.3197 221.276 65.5823 220.067 65.5823 218.918C65.5823 215.375 68.4552 212.501 71.999 212.501C75.5428 212.501 78.4157 215.375 78.4157 218.918C78.4157 220.034 77.7208 221.121 76.928 222.362C75.8749 224.01 74.649 225.928 74.649 228.543C74.649 230.843 75.8199 232.762 76.856 234.461C77.6783 235.809 78.4157 237.018 78.4157 238.168C78.4157 238.322 78.4102 238.475 78.3995 238.626C78.4102 238.778 78.4157 238.93 78.4157 239.085C78.4157 240.234 77.6783 241.443 76.856 242.791C75.8199 244.49 74.649 246.41 74.649 248.71C74.649 251.324 75.8749 253.243 76.928 254.891C77.7208 256.131 78.4157 257.219 78.4157 258.335C78.4157 261.878 75.5428 264.751 71.999 264.751Z"
          fill="black"/>
    <!--    <path d="M140.425 418.747C135.633 418.747 131.518 417.899 128.081 416.205C124.644 414.511 121.836 412.308 119.657 409.597C117.527 406.886 115.954 403.933 114.938 400.738C113.921 397.543 113.413 394.469 113.413 391.516V389.918C113.413 386.627 113.921 383.383 114.938 380.188C116.003 376.993 117.624 374.088 119.803 371.474C121.981 368.86 124.741 366.778 128.081 365.229C131.47 363.632 135.463 362.833 140.062 362.833C144.855 362.833 149.018 363.704 152.552 365.447C156.134 367.141 158.991 369.562 161.121 372.709C163.251 375.807 164.534 379.438 164.969 383.601H154.585C154.198 381.18 153.327 379.147 151.971 377.501C150.664 375.807 148.994 374.548 146.961 373.725C144.927 372.854 142.628 372.418 140.062 372.418C137.448 372.418 135.124 372.878 133.091 373.798C131.058 374.669 129.364 375.928 128.008 377.574C126.653 379.22 125.612 381.156 124.886 383.383C124.208 385.61 123.869 388.079 123.869 390.79C123.869 393.404 124.208 395.824 124.886 398.051C125.612 400.278 126.677 402.239 128.081 403.933C129.485 405.579 131.203 406.862 133.236 407.782C135.318 408.701 137.714 409.161 140.425 409.161C144.395 409.161 147.735 408.193 150.446 406.257C153.206 404.272 154.876 401.513 155.457 397.979H165.841C165.356 401.755 164.074 405.216 161.992 408.363C159.91 411.509 157.054 414.027 153.423 415.915C149.793 417.803 145.46 418.747 140.425 418.747Z"-->
    <!--          fill="white"/>-->
    <!--    <path d="M170.112 417.367V362.833H180.206V384.635C181.214 382.151 182.643 380.233 184.49 378.881C186.523 377.429 189.089 376.702 192.187 376.702H192.623C197.125 376.702 200.538 378.252 202.862 381.35C205.185 384.448 206.347 388.95 206.347 394.856V417.367H196.254V393.912C196.254 391.395 195.528 389.41 194.075 387.958C192.671 386.505 190.808 385.779 188.484 385.779C186.015 385.779 184.006 386.602 182.457 388.248C180.956 389.846 180.206 391.952 180.206 394.566V417.367H170.112Z"-->
    <!--          fill="white"/>-->
    <!--    <path fill-rule="evenodd" clip-rule="evenodd"-->
    <!--          d="M237.458 409.773V417.367H245.446V392.896C245.446 389.216 244.744 386.239 243.34 383.964C241.985 381.689 239.951 380.019 237.24 378.954C234.578 377.889 231.213 377.356 227.147 377.356C225.84 377.356 224.436 377.38 222.935 377.429C221.483 377.429 220.055 377.477 218.651 377.574C217.247 377.671 215.988 377.767 214.875 377.864V386.433C216.23 386.336 217.755 386.263 219.45 386.215C221.192 386.118 222.911 386.046 224.605 385.997C226.3 385.949 227.752 385.925 228.962 385.925C231.286 385.925 233.004 386.481 234.118 387.595C235.231 388.708 235.788 390.402 235.788 392.678V393.041H227.728C224.242 393.041 221.192 393.501 218.578 394.421C216.013 395.34 214.004 396.72 212.551 398.56C211.147 400.399 210.445 402.771 210.445 405.676C210.445 408.338 211.026 410.614 212.188 412.502C213.398 414.39 215.069 415.842 217.199 416.859C219.377 417.875 221.894 418.383 224.751 418.383C227.51 418.383 229.834 417.899 231.722 416.931C233.658 415.915 235.159 414.462 236.224 412.574C236.723 411.728 237.134 410.794 237.458 409.773ZM235.788 402.771V399.068H227.583C225.259 399.068 223.468 399.649 222.209 400.811C220.999 401.924 220.394 403.376 220.394 405.168C220.394 406.959 220.999 408.411 222.209 409.524C223.468 410.638 225.259 411.195 227.583 411.195C228.986 411.195 230.269 410.953 231.431 410.468C232.641 409.936 233.634 409.065 234.408 407.854C235.231 406.596 235.691 404.901 235.788 402.771Z"-->
    <!--          fill="white"/>-->
    <!--    <path d="M254.515 417.367V377.356H264.608V417.367H254.515Z" fill="white"/>-->
    <!--    <path d="M272.61 377.356V417.367H282.704V394.203C282.704 391.637 283.454 389.604 284.955 388.103C286.504 386.554 288.513 385.779 290.982 385.779C293.402 385.779 295.29 386.53 296.646 388.03C298.049 389.531 298.751 391.492 298.751 393.912V417.367H308.845V394.784C308.845 388.781 307.635 384.279 305.214 381.277C302.794 378.227 299.236 376.702 294.54 376.702H294.104C290.957 376.702 288.319 377.38 286.189 378.736C284.107 380.091 282.534 382.124 281.469 384.835C281.122 385.703 280.832 386.642 280.598 387.653V377.356H272.61Z"-->
    <!--          fill="white"/>-->
    <!--    <path d="M50 400.669C50 404.212 52.8729 407.086 56.4167 407.086C59.9605 407.086 62.8333 404.212 62.8333 400.669C62.8333 398.071 59.0666 395.627 59.0666 391.044C59.0666 386.919 62.8333 384.017 62.8333 381.419C62.8333 377.876 59.9605 375.002 56.4167 375.002C52.8729 375.002 50 377.876 50 381.419C50 384.017 53.7667 386.919 53.7667 391.044C53.7667 395.169 50 398.071 50 400.669Z"-->
    <!--          fill="white"/>-->
    <!--    <path d="M81.1658 361.25C81.1658 357.707 84.0387 354.833 87.5825 354.833C91.1263 354.833 93.9992 357.707 93.9992 361.25C93.9992 362.365 93.3043 363.453 92.5115 364.693C91.4584 366.341 90.2324 368.26 90.2324 370.875C90.2324 373.175 91.4033 375.094 92.4395 376.793C93.2618 378.141 93.9992 379.35 93.9992 380.5C93.9992 380.654 93.9937 380.807 93.983 380.958C93.9937 381.109 93.9992 381.262 93.9992 381.416C93.9992 382.532 93.3043 383.619 92.5115 384.86C91.4584 386.508 90.2324 388.426 90.2324 391.041C90.2324 393.341 91.4033 395.261 92.4395 396.96C93.2618 398.308 93.9992 399.517 93.9992 400.666C93.9992 400.82 93.9937 400.973 93.983 401.124C93.9937 401.276 93.9992 401.429 93.9992 401.583C93.9992 402.732 93.2618 403.941 92.4395 405.289C91.4034 406.988 90.2325 408.908 90.2325 411.208C90.2325 413.823 91.4584 415.741 92.5115 417.389C93.3043 418.63 93.9992 419.717 93.9992 420.833C93.9992 424.376 91.1263 427.25 87.5825 427.25C84.0387 427.25 81.1658 424.376 81.1658 420.833C81.1658 419.683 81.9032 418.474 82.7255 417.126C83.7616 415.427 84.9325 413.508 84.9325 411.208C84.9325 408.908 83.7616 406.988 82.7255 405.289C81.9032 403.941 81.1658 402.732 81.1658 401.583C81.1658 401.429 81.1713 401.276 81.1819 401.125C81.1713 400.973 81.1658 400.82 81.1658 400.666C81.1658 399.517 81.9032 398.308 82.7255 396.96C83.7616 395.261 84.9325 393.341 84.9325 391.041C84.9325 388.741 83.7616 386.822 82.7255 385.123C81.9032 383.775 81.1658 382.566 81.1658 381.416C81.1658 381.262 81.1713 381.109 81.1819 380.958C81.1713 380.807 81.1658 380.654 81.1658 380.5C81.1658 379.35 81.9032 378.141 82.7255 376.793C83.7616 375.094 84.9325 373.175 84.9325 370.875C84.9325 368.575 83.7616 366.655 82.7255 364.956C81.9032 363.608 81.1658 362.399 81.1658 361.25Z"-->
    <!--          fill="white"/>-->
    <!--    <path d="M71.999 417.168C68.4552 417.168 65.5823 414.294 65.5823 410.751C65.5823 409.602 66.3197 408.393 67.142 407.044C68.1781 405.346 69.349 403.426 69.349 401.126C69.349 398.826 68.1781 396.906 67.142 395.208C66.3197 393.859 65.5823 392.65 65.5823 391.501C65.5823 391.347 65.5878 391.194 65.5985 391.043C65.5878 390.891 65.5823 390.738 65.5823 390.584C65.5823 389.435 66.3197 388.226 67.142 386.878C68.1781 385.179 69.349 383.259 69.349 380.959C69.349 378.659 68.1781 376.74 67.142 375.041C66.3197 373.693 65.5823 372.484 65.5823 371.334C65.5823 367.791 68.4552 364.918 71.999 364.918C75.5428 364.918 78.4157 367.791 78.4157 371.334C78.4157 372.45 77.7208 373.538 76.928 374.778C75.8749 376.426 74.649 378.345 74.649 380.959C74.649 383.259 75.8199 385.179 76.856 386.878C77.6783 388.226 78.4157 389.435 78.4157 390.584C78.4157 390.738 78.4102 390.891 78.3995 391.043C78.4102 391.194 78.4157 391.347 78.4157 391.501C78.4157 392.65 77.6783 393.859 76.856 395.208C75.8199 396.906 74.649 398.826 74.649 401.126C74.649 403.741 75.8749 405.659 76.928 407.307C77.7208 408.548 78.4157 409.635 78.4157 410.751C78.4157 414.294 75.5428 417.168 71.999 417.168Z"-->
    <!--          fill="white"/>-->
</svg>
