<svg width="24" height="24" viewBox="0 0 24 24" fill="none" xmlns="http://www.w3.org/2000/svg">
<g clip-path="url(#clip0)">
<mask id="mask0" mask-type="alpha" maskUnits="userSpaceOnUse" x="0" y="3" width="25" height="18">
<path d="M12.0008 20.9996C9.00783 20.9991 6.01784 20.8187 3.04672 20.4596C1.71059 20.2831 0.653368 19.2423 0.455769 17.9093C-0.150946 13.9921 -0.150946 10.0048 0.455769 6.0876C0.653368 4.75458 1.71059 3.71385 3.04672 3.53731C8.99447 2.8209 15.0069 2.8209 20.9548 3.53731C22.2907 3.71385 23.348 4.75458 23.5456 6.0876C24.1525 10.0048 24.1525 13.9921 23.5456 17.9093C23.348 19.2423 22.2907 20.2831 20.9548 20.4596C17.9835 20.8187 14.9935 20.9991 12.0008 20.9996Z" fill="#EA0000"/>
</mask>
<g mask="url(#mask0)">
<rect x="-0.75" y="3" width="25.5" height="6" fill="#F0F0F0"/>
<rect x="-0.75" y="9" width="25.5" height="6" fill="#0052B4"/>
<rect x="-0.75" y="15" width="25.5" height="6" fill="#D80027"/>
</g>
</g>
<defs>
<clipPath id="clip0">
<rect width="24" height="24" fill="white"/>
</clipPath>
</defs>
</svg>
