<svg width="48" height="48" viewBox="0 0 48 48" fill="none" xmlns="http://www.w3.org/2000/svg">
<path fill-rule="evenodd" clip-rule="evenodd" d="M18.5 22V22C16.567 22 15 20.433 15 18.5V18.5C15 16.567 16.567 15 18.5 15V15C20.433 15 22 16.567 22 18.5V18.5C22 20.433 20.433 22 18.5 22Z" stroke="#444444" stroke-linecap="round" stroke-linejoin="round"/>
<path fill-rule="evenodd" clip-rule="evenodd" d="M29.5 22V22C27.567 22 26 20.433 26 18.5V18.5C26 16.567 27.567 15 29.5 15V15C31.433 15 33 16.567 33 18.5V18.5C33 20.433 31.433 22 29.5 22Z" stroke="#444444" stroke-linecap="round" stroke-linejoin="round"/>
<path fill-rule="evenodd" clip-rule="evenodd" d="M18.5 33V33C16.567 33 15 31.433 15 29.5V29.5C15 27.567 16.567 26 18.5 26V26C20.433 26 22 27.567 22 29.5V29.5C22 31.433 20.433 33 18.5 33Z" stroke="#444444" stroke-linecap="round" stroke-linejoin="round"/>
<path fill-rule="evenodd" clip-rule="evenodd" d="M33 29.5V29.5C33 27.567 31.433 26 29.5 26V26C27.567 26 26 27.567 26 29.5V29.5C26 31.433 27.567 33 29.5 33V33C31.433 33 33 31.433 33 29.5Z" stroke="#444444" stroke-linecap="round" stroke-linejoin="round"/>
</svg>
