<svg width="45" height="45" viewBox="0 0 56 56" fill="none" xmlns="http://www.w3.org/2000/svg">
<path d="M38.4978 0C35.5123 0.206499 32.0228 2.11749 29.9894 4.60597C28.1344 6.86346 26.6084 10.2164 27.2034 13.4749C30.4654 13.5764 33.8358 11.6199 35.7888 9.08945C37.6158 6.73396 38.9983 3.40198 38.4978 0Z" fill="black"/>
<path d="M50.2959 18.7879C47.4294 15.1934 43.401 13.1074 39.5965 13.1074C34.574 13.1074 32.4495 15.5119 28.96 15.5119C25.3621 15.5119 22.6286 13.1144 18.2851 13.1144C14.0186 13.1144 9.47565 15.7219 6.59517 20.1809C2.54569 26.4598 3.23869 38.2653 9.80115 48.3207C12.1496 51.9187 15.2856 55.9647 19.3876 55.9997C23.0381 56.0347 24.0671 53.6582 29.0125 53.6337C33.958 53.6057 34.896 56.0312 38.5395 55.9927C42.645 55.9612 45.9524 51.4777 48.3009 47.8797C49.9844 45.3002 50.6109 44.0017 51.9164 41.0898C42.421 37.4743 40.8985 23.9714 50.2959 18.7879Z" fill="black"/>
</svg>
