<svg width="45" height="45" viewBox="0 0 56 56" fill="none" xmlns="http://www.w3.org/2000/svg">
<path d="M28.657 55.998H27.3718C27.3518 55.9876 27.3303 55.9804 27.308 55.9768C26.8356 55.9755 26.3631 55.9755 25.8906 55.9768L25.0463 55.9748C24.6409 55.9651 24.2356 55.9562 23.8302 55.9462C22.4866 55.9096 21.1445 55.8388 19.8058 55.7172C18.6541 55.6135 17.5072 55.4675 16.3678 55.2648C14.7294 54.9734 13.1262 54.558 11.5768 53.9448C8.73627 52.8205 6.34978 51.0868 4.46802 48.6731C2.9839 46.769 1.99679 44.6198 1.34348 42.3078C0.63807 39.8096 0.332315 37.2502 0.1677 34.6699C0.0904027 33.4426 0.0486048 32.2116 0.0271333 30.9823L0.0222664 30.0312C0.0403025 29.5629 0.0262744 29.0942 0.0222664 28.6258C0.0188323 28.6084 0.012852 28.5915 0.0045166 28.5757V27.3161C0.00966977 27.1214 0.0182584 26.9267 0.0199761 26.7321C0.024843 26.197 0.026847 25.6622 0.0299961 25.1271C0.0425928 24.0893 0.0798101 23.0504 0.133918 22.0138C0.229824 20.1844 0.399592 18.363 0.714508 16.5568C0.98419 15.008 1.36495 13.4884 1.91863 12.0146C3.17257 8.67595 5.22181 5.95021 8.1697 3.92072C9.74428 2.83598 11.4717 2.06587 13.296 1.50704C14.752 1.061 16.2396 0.760975 17.7457 0.545401C18.9767 0.369048 20.2144 0.252243 21.4551 0.173228C22.6862 0.0933542 23.9212 0.0495523 25.1557 0.0283671L25.9727 0.0266493C26.2221 0.0266493 26.4717 0.0315162 26.7214 0.0266493C26.8104 0.0266493 26.9035 0.0486934 26.9891 0.00317383H29.0122C29.596 0.0318025 30.18 0.0378145 30.764 0.0280808C32.1033 0.0486934 33.4411 0.0993662 34.7778 0.189547C36.6372 0.315226 38.4852 0.525934 40.312 0.902687C42.0678 1.26398 43.7743 1.7793 45.3999 2.54426C48.4657 3.98685 50.9037 6.13286 52.6515 9.04497C53.8488 11.0398 54.5854 13.2099 55.0684 15.4741C55.4288 17.1632 55.6409 18.8755 55.7735 20.5966C55.8909 22.114 55.9516 23.6339 55.9739 25.1555C55.9739 25.3911 55.9679 25.6264 55.9739 25.8617C55.9816 26.2285 55.9696 26.5955 56.0005 26.9617V28.9574C55.9901 28.9822 55.9829 29.0083 55.9793 29.0349C55.9773 29.4114 55.977 29.7876 55.9765 30.1641V30.8729C55.9461 32.4627 55.8857 34.0507 55.7572 35.6359C55.6375 37.1114 55.4583 38.5789 55.1774 40.0327C54.8697 41.6256 54.4403 43.1818 53.8127 44.6822C52.2831 48.3364 49.8084 51.1483 46.3217 53.0467C44.087 54.2637 41.6707 54.9296 39.1754 55.3416C37.89 55.554 36.5963 55.6925 35.2971 55.7876C33.8522 55.8935 32.4056 55.9485 30.957 55.9717C30.6441 55.9717 30.3315 55.9694 30.0188 55.9717C29.5634 55.9788 29.1102 55.9894 28.657 55.998ZM10.6804 28.5757V39.2113C10.6804 39.5571 10.8044 39.6817 11.1471 39.682H14.018C14.5874 39.682 15.1571 39.682 15.7265 39.682C15.9759 39.682 16.1242 39.5334 16.1316 39.2849C16.1316 39.2394 16.1316 39.1938 16.1316 39.148C16.1316 33.6437 16.1316 28.1392 16.1316 22.6344C16.1316 22.5752 16.1302 22.5159 16.1316 22.4566C16.1349 22.3813 16.1614 22.3089 16.2076 22.2492C16.2537 22.1896 16.3172 22.1458 16.3893 22.1237C16.4639 22.1037 16.5412 22.0957 16.6183 22.0999C18.2542 22.0999 19.89 22.0922 21.5258 22.1025C22.9424 22.1117 24.3601 22.0501 25.7752 22.152C26.4623 22.2013 27.1414 22.2866 27.8015 22.4893C28.4843 22.6988 29.0784 23.0387 29.472 23.6613C29.7869 24.1618 29.9453 24.7189 30.0492 25.2932C30.2018 26.1386 30.2367 26.994 30.2376 27.8503C30.2412 31.6371 30.2419 35.4237 30.2396 39.2102C30.2396 39.5039 30.3827 39.6485 30.6721 39.6485C32.2034 39.6485 33.7346 39.6485 35.2656 39.6485C35.3155 39.6512 35.3654 39.6459 35.4136 39.6327C35.6046 39.5714 35.6839 39.4435 35.6839 39.1838C35.6839 35.5886 35.6839 31.9934 35.6839 28.3982C35.6839 27.0587 35.6409 25.7206 35.4935 24.3877C35.3919 23.469 35.2358 22.562 34.941 21.6834C34.6885 20.927 34.3432 20.2202 33.7987 19.625C33.1766 18.9451 32.3893 18.5334 31.5307 18.2414C30.4251 17.8655 29.2771 17.7175 28.121 17.6155C26.892 17.5073 25.659 17.4936 24.4279 17.4858C20.0037 17.4572 15.5788 17.475 11.1542 17.475C11.1133 17.475 11.0721 17.473 11.0311 17.475C10.9462 17.4786 10.8652 17.5122 10.8027 17.5699C10.7402 17.6275 10.7001 17.7055 10.6896 17.7899C10.6812 17.8622 10.6779 17.935 10.6796 18.0078C10.6802 21.5298 10.6804 25.0525 10.6804 28.5757ZM39.9103 28.5835V39.1495C39.9103 39.1996 39.9103 39.2497 39.9103 39.2998C39.9198 39.5377 40.0606 39.6805 40.3 39.6808C41.8581 39.6825 43.4163 39.6825 44.9745 39.6808C45.1439 39.6808 45.2607 39.6006 45.328 39.4501C45.3624 39.3739 45.3598 39.2906 45.3598 39.2084C45.3598 32.1326 45.3598 25.0567 45.3598 17.9808C45.3598 17.9445 45.3621 17.9078 45.3598 17.8715C45.3446 17.7195 45.2739 17.5998 45.1291 17.5451C45.0171 17.5027 44.9043 17.467 44.7766 17.471C44.4583 17.4813 44.1391 17.4744 43.8202 17.4744C42.6538 17.4744 41.4874 17.4744 40.3209 17.4744C40.0684 17.4744 39.9224 17.6155 39.912 17.866C39.91 17.9204 39.912 17.9754 39.912 18.0301L39.9103 28.5835ZM20.3463 32.8254C20.3463 34.9253 20.3512 37.0255 20.3418 39.1254C20.34 39.4901 20.5004 39.6553 20.8757 39.6528C22.4291 39.6413 23.9825 39.6479 25.5359 39.6479C25.8923 39.6479 26.0246 39.5179 26.0246 39.1658C26.0246 34.9427 26.0255 30.7197 26.0274 26.497C26.0274 26.2282 25.9009 26.0203 25.555 26.0226C23.9745 26.0321 22.3936 26.0266 20.8127 26.0266C20.4763 26.0266 20.3463 26.1578 20.3463 26.4979V32.8254Z" fill="#F26A22"/>
</svg>
