<svg width="190" height="32" viewBox="0 0 220 32" fill="none" xmlns="http://www.w3.org/2000/svg">
<path d="M14.7104 22.4842C15.0045 23.2089 14.9296 24.1043 14.7852 24.6576C14.5277 25.6576 13.8302 26.659 11.7063 26.659C9.72674 26.659 8.5518 25.5879 8.5518 23.9678V21.1059H0.122559V23.3817C0.122559 30.0031 5.62104 32.0044 11.5588 32.0044C17.2399 32.0044 21.9324 30.1766 22.6651 25.2437C23.0325 22.6933 22.7751 21.0006 22.6277 20.3797C21.3075 14.2065 9.36003 12.3438 8.47992 8.89519C8.36917 8.37885 8.33177 7.86109 8.44252 7.34262C8.66181 6.37752 9.36003 5.34271 11.3014 5.34271C13.135 5.34271 14.2351 6.41094 14.2351 8.03391V9.85958H22.0776V7.7921C22.0776 1.34218 15.9198 0.342223 11.487 0.342223C5.8792 0.342223 1.33271 2.09961 0.490003 6.89456C0.27071 8.2046 0.232571 9.41223 0.561879 10.8951C1.91871 16.9318 13.0983 18.6913 14.7104 22.4842ZM33.7713 1.2739L27.9435 30.865H36.4483L40.7366 4.03267H40.92L45.0983 30.865H53.5649L47.7746 1.2739H33.7713ZM81.2766 1.2739L77.3902 23.9002H77.2076L73.3219 1.2739H60.4929L59.7954 30.865H67.6775L67.8601 4.27235H68.0427L73.286 30.865H81.2759L86.5169 4.27235H86.7018L86.8844 30.865H94.7291L94.0316 1.2739H81.2766ZM116.905 22.4508C117.197 23.1741 117.124 24.0695 116.977 24.6228C116.722 25.6227 116.026 26.6227 113.899 26.6227C111.919 26.6227 110.747 25.5545 110.747 23.9336V21.0717H102.317V23.3476C102.317 29.9355 107.816 31.9368 113.753 31.9368C119.434 31.9368 124.125 30.1083 124.86 25.1761C125.225 22.6243 124.97 20.9331 124.822 20.3122C123.502 14.1041 111.553 12.2755 110.676 8.79277C110.565 8.2743 110.527 7.75868 110.636 7.24092C110.856 6.27581 111.553 5.24172 113.495 5.24172C115.327 5.24172 116.427 6.30924 116.427 7.93008V9.75788H124.272V7.68756C124.272 1.2739 118.114 0.274658 113.678 0.274658C108.069 0.274658 103.526 2.03205 102.681 6.827C102.461 8.13704 102.426 9.31053 102.756 10.8275C104.112 16.8621 115.292 18.6223 116.905 22.4508ZM143.296 26.4179C145.495 26.4179 146.155 25.0019 146.304 24.2786C146.376 23.9678 146.376 23.519 146.376 23.1399V1.2739H154.331V22.4842C154.331 23.1399 154.294 23.7949 154.255 24.4151C153.707 29.9341 149.052 31.7277 143.297 31.7277C137.507 31.7277 132.888 29.9341 132.338 24.4151C132.3 24.1392 132.263 23.0034 132.263 22.4842V1.2739H140.218V23.1399C140.218 23.5183 140.218 23.9678 140.291 24.2786C140.437 25.0012 141.097 26.4179 143.296 26.4179ZM181.745 1.2739L182.187 24.487H182.004L174.746 1.2739H163.091V30.5215H170.825L170.385 6.51691H170.568L178.336 30.5215H189.518V1.2739H181.745ZM208.835 26.1064C211.108 26.1064 211.913 24.7601 212.061 23.9678C212.133 23.657 212.133 23.2089 212.133 22.8626V18.5512H208.908V14.242H220.051V22.1734C220.051 22.726 220.051 23.1392 219.942 24.1043C219.43 29.486 214.444 31.4184 208.873 31.4184C203.299 31.4184 198.351 29.486 197.801 24.1043C197.728 23.1051 197.691 22.726 197.691 22.1734V9.72374C197.691 9.20527 197.767 8.2743 197.839 7.79282C198.537 2.27386 203.299 0.480197 208.873 0.480197C214.444 0.480197 219.319 2.23972 219.904 7.79282C220.014 8.7245 219.98 9.72374 219.98 9.72374V10.723H212.062V9.06801C212.062 9.06801 212.062 8.37885 211.954 7.92937C211.805 7.27435 211.217 5.79006 208.798 5.79006C206.526 5.79006 205.829 7.20536 205.684 7.92937C205.575 8.30844 205.537 8.86034 205.537 9.30982V22.8284C205.537 23.2082 205.537 23.6221 205.61 23.9678C205.794 24.7601 206.564 26.1064 208.835 26.1064Z" fill="black"/>
</svg>
