<svg width="40" height="40" viewBox="0 0 40 40" fill="none" xmlns="http://www.w3.org/2000/svg">
<rect width="40" height="40" rx="20" fill="#F5F3FD"/>
<path d="M13.8999 28C15.4999 26.5 17.5999 25.5 19.9999 25.5C22.2999 25.5 24.4999 26.4 26.0999 28" stroke="#5243C2" stroke-width="1.5" stroke-linecap="round" stroke-linejoin="round"/>
<path d="M22.1 17.4C23.3 18.6 23.3 20.5 22.1 21.6C20.9 22.7 19 22.8 17.9 21.6C16.8 20.4 16.7 18.5 17.9 17.4C19.1 16.3 20.9 16.2 22.1 17.4" stroke="#5243C2" stroke-width="1.5" stroke-linecap="round" stroke-linejoin="round"/>
<path d="M12 25C11.4 23.8 11 22.4 11 21C11 16 15 12 20 12C25 12 29 16 29 21C29 22.4 28.6 23.8 28 25" stroke="#5243C2" stroke-width="1.5" stroke-linecap="round" stroke-linejoin="round"/>
</svg>
