<svg width="52" height="49" viewBox="0 0 52 49" fill="none" xmlns="http://www.w3.org/2000/svg">
<path fill-rule="evenodd" clip-rule="evenodd" d="M1.73041 37.4562L3.01248 34.8448L7.64915 31.9456L16.2491 31.8323L21.8328 33.6692L29.9185 39.1216L24.6409 39.3237L18.722 42.8535L13.6591 46.6405L8.8987 47.1304L4.44412 45.4068L1.70117 41.4177L1.73041 37.4562Z" fill="#FFBE00"/>
<path fill-rule="evenodd" clip-rule="evenodd" d="M12.5215 15.5368L13.4977 15.0194L20.3893 3.30936L26.4611 0.869385L33.4764 4.54618L34.8496 8.90567L32.1944 13.902L28.1075 16.2838L22.5857 16.1674L15.3264 15.5368H12.5215Z" fill="#FFBE00"/>
<path fill-rule="evenodd" clip-rule="evenodd" d="M14.6423 47.4218C18.5208 45.1716 22.7769 39.6182 26.0014 40.0743C29.2065 39.6304 33.4853 45.1839 37.3574 47.4218C45.7036 52.1823 54.72 43.3654 51.2286 36.4006C45.7339 25.8938 40.236 15.393 34.7349 4.89831C33.0461 1.61644 29.4994 0 26.0014 0C22.5035 0 18.9535 1.61644 17.2649 4.89831L0.771039 36.3883C-2.72036 43.3654 6.30254 52.1823 14.6423 47.4096V47.4218ZM14.6064 14.9705C20.3495 12.4999 21.9732 15.8889 25.8257 15.7572C31.1393 15.5706 35.0536 10.5008 32.6328 5.85961C31.3865 3.47475 28.7705 2.18587 26.0014 2.18587C23.2324 2.18587 20.6131 3.46249 19.37 5.85961C17.7843 8.90065 16.1965 11.9376 14.6064 14.9705ZM35.2262 10.8284C33.0982 17.3675 25.868 18.136 23.7791 17.3401C20.8506 16.2226 16.2952 14.8694 12.7745 18.4728C10.2235 23.3405 8.02714 27.6265 5.47607 32.4911C8.2712 28.3613 24.0231 29.4878 32.3562 40.5672C33.2739 41.2958 34.1166 42.0551 34.852 42.6888C35.9876 43.6654 37.2631 44.789 38.5776 45.542C40.8358 46.8371 43.3511 46.9442 45.6646 45.7104C46.6976 45.1623 47.5871 44.4034 48.2678 43.4895C48.9485 42.5758 49.4032 41.5302 49.5985 40.4294C49.7585 39.3809 49.5924 38.3112 49.1201 37.3496C44.4888 28.5102 39.8575 19.6738 35.2262 10.8406V10.8284ZM27.495 37.9619C27.0064 37.8582 26.5045 37.821 26.0047 37.8518C22.6695 37.6252 19.4091 40.7509 17.1509 42.695C16.0153 43.6715 14.7398 44.795 13.4252 45.5482C11.1671 46.8432 8.65186 46.9503 6.33836 45.7165C5.30534 45.1684 4.4158 44.4095 3.7351 43.4957C3.0544 42.5819 2.59971 41.5363 2.40444 40.4356C2.2415 39.3851 2.40773 38.3126 2.88278 37.3496C7.76352 28.049 21.1044 32.9779 27.4917 37.9619H27.495Z" fill="white"/>
</svg>
