<svg width="24" height="24" viewBox="0 0 24 24" fill="none" xmlns="http://www.w3.org/2000/svg">
<path d="M8.58482 8.96548C8.60482 8.98548 8.60482 9.01648 8.58482 9.03648C8.56482 9.05648 8.53382 9.05648 8.51382 9.03648C8.49382 9.01648 8.49382 8.98548 8.51382 8.96548C8.53382 8.94548 8.56582 8.94548 8.58482 8.96548" stroke="#5243C2" stroke-width="1.5" stroke-linecap="round" stroke-linejoin="round"/>
<path d="M8.58482 11.9655C8.60482 11.9855 8.60482 12.0165 8.58482 12.0365C8.56482 12.0565 8.53382 12.0565 8.51382 12.0365C8.49382 12.0165 8.49382 11.9855 8.51382 11.9655C8.53382 11.9455 8.56582 11.9455 8.58482 11.9655" stroke="#5243C2" stroke-width="1.5" stroke-linecap="round" stroke-linejoin="round"/>
<path d="M11 12H15.5" stroke="#5243C2" stroke-width="1.5" stroke-linecap="round" stroke-linejoin="round"/>
<path d="M8.58482 14.9655C8.60482 14.9855 8.60482 15.0165 8.58482 15.0365C8.56482 15.0565 8.53382 15.0565 8.51382 15.0365C8.49382 15.0165 8.49382 14.9855 8.51382 14.9655C8.53382 14.9455 8.56582 14.9455 8.58482 14.9655" stroke="#5243C2" stroke-width="1.5" stroke-linecap="round" stroke-linejoin="round"/>
<path d="M11 15H15.5" stroke="#5243C2" stroke-width="1.5" stroke-linecap="round" stroke-linejoin="round"/>
<path d="M18.3638 5.63625C21.8788 9.15125 21.8788 14.8493 18.3638 18.3643C14.8488 21.8793 9.15076 21.8793 5.63576 18.3643C2.12076 14.8493 2.12076 9.15125 5.63576 5.63625C9.15076 2.12125 14.8488 2.12125 18.3638 5.63625" stroke="#5243C2" stroke-width="1.5" stroke-linecap="round" stroke-linejoin="round"/>
<path d="M11 9H15.5" stroke="#5243C2" stroke-width="1.5" stroke-linecap="round" stroke-linejoin="round"/>
</svg>
