<svg width="16" height="16" viewBox="0 0 16 16" fill="none" xmlns="http://www.w3.org/2000/svg">
<path fill-rule="evenodd" clip-rule="evenodd" d="M9.33335 9.33325H10.6667C11.0347 9.33325 11.3334 9.63192 11.3334 9.99992V12.6666C11.3334 13.0346 11.0347 13.3333 10.6667 13.3333H9.33335C8.96535 13.3333 8.66669 13.0346 8.66669 12.6666V9.99992C8.66669 9.63192 8.96535 9.33325 9.33335 9.33325Z" stroke="#5243C2" stroke-linecap="round" stroke-linejoin="round"/>
<path d="M14 11.3333H11.3333" stroke="#5243C2" stroke-linecap="round" stroke-linejoin="round"/>
<path d="M8.66667 11.3333H2" stroke="#5243C2" stroke-linecap="round" stroke-linejoin="round"/>
<path fill-rule="evenodd" clip-rule="evenodd" d="M6.66669 6.66675H5.33335C4.96535 6.66675 4.66669 6.36808 4.66669 6.00008V3.33341C4.66669 2.96541 4.96535 2.66675 5.33335 2.66675H6.66669C7.03469 2.66675 7.33335 2.96541 7.33335 3.33341V6.00008C7.33335 6.36808 7.03469 6.66675 6.66669 6.66675Z" stroke="#5243C2" stroke-linecap="round" stroke-linejoin="round"/>
<path d="M2 4.66683H4.66667" stroke="#5243C2" stroke-linecap="round" stroke-linejoin="round"/>
<path d="M7.33331 4.66683H14" stroke="#5243C2" stroke-linecap="round" stroke-linejoin="round"/>
</svg>
