<svg width="24" height="24" viewBox="0 0 24 24" fill="none" xmlns="http://www.w3.org/2000/svg">
<path fill-rule="evenodd" clip-rule="evenodd" d="M19.4344 15.7575L18.3002 14.6233C17.7331 14.0562 16.8152 14.0562 16.2493 14.6233L15.3583 15.5143C15.1595 15.7131 14.8579 15.7797 14.6006 15.6675C13.3086 15.1016 12.0329 14.2445 10.8953 13.1068C9.76224 11.9738 8.90751 10.704 8.34158 9.41661C8.22349 9.15118 8.29247 8.83899 8.49826 8.63203L9.29687 7.83342C9.94581 7.18448 9.94581 6.26778 9.37872 5.70069L8.24336 4.56651C7.48802 3.81116 6.26497 3.81116 5.50963 4.56651L4.8794 5.19674C4.16264 5.9135 3.86448 6.94712 4.05741 7.9714C4.53447 10.497 6.00306 13.2635 8.36964 15.6312C10.7362 17.999 13.5027 19.4664 16.0295 19.9435C17.0538 20.1364 18.0874 19.8382 18.8041 19.1215L19.4344 18.4924C20.1885 17.7371 20.1885 16.5129 19.4344 15.7575Z" stroke="#5243C2" stroke-width="1.5" stroke-linecap="round" stroke-linejoin="round"/>
</svg>
